<svg width="255" height="50" viewBox="0 0 255 50" fill="none" xmlns="http://www.w3.org/2000/svg">
<path d="M23.2646 0C26.0846 0 28.707 0.403971 31.1309 1.21191C33.5706 2.01987 35.7253 3.16049 37.5947 4.63379C39.48 6.10717 41.0093 7.85787 42.1816 9.88574C43.354 11.9136 44.082 14.1396 44.3672 16.5635H32.4619C32.1926 15.5654 31.7962 14.6862 31.2734 13.9258C30.7506 13.1495 30.1091 12.4918 29.3486 11.9531C28.5882 11.4145 27.7166 11.0105 26.7344 10.7412C25.7523 10.4561 24.6751 10.3135 23.5029 10.3135C21.1426 10.3135 19.0988 10.8839 17.3721 12.0244C15.6612 13.165 14.338 14.8286 13.4033 17.0146C12.4686 19.1851 12.001 21.8235 12.001 24.9287C12.001 28.0496 12.4525 30.711 13.3555 32.9131C14.2585 35.1151 15.5654 36.7947 17.2764 37.9512C18.9874 39.1077 21.0631 39.6865 23.5029 39.6865C25.6575 39.6865 27.4796 39.3377 28.9688 38.6406C30.4737 37.9277 31.6144 36.9211 32.3906 35.6221C33.128 34.3879 33.5149 32.9466 33.5518 31.2979H23.9062V22.7188H44.8906V29.1582C44.8906 33.5149 43.9639 37.2464 42.1104 40.3516C40.2726 43.4567 37.7377 45.8414 34.5059 47.5049C31.2898 49.1684 27.5897 50 23.4072 50C18.7655 49.9999 14.6859 48.9934 11.1689 46.9814C7.65198 44.9694 4.91074 42.1019 2.94629 38.3789C0.981922 34.6401 1.39729e-05 30.2041 0 25.0713C0 21.0789 0.594019 17.5376 1.78223 14.4482C2.97043 11.3432 4.62616 8.71314 6.74902 6.55859C8.88772 4.4041 11.3591 2.77205 14.1631 1.66309C16.983 0.554144 20.0171 5.14237e-05 23.2646 0ZM70.7412 0C74.5118 0 77.7842 0.641541 80.5566 1.9248C83.3447 3.19218 85.5073 4.97446 87.0439 7.27148C88.5807 9.56868 89.3648 12.2309 89.3965 15.2568H78.1318C77.9734 13.5143 77.2689 12.1597 76.0176 11.1934C74.7818 10.2111 73.015 9.71973 70.7178 9.71973C69.1971 9.71974 67.9299 9.91752 66.916 10.3135C65.9021 10.7095 65.1408 11.256 64.6338 11.9531C64.1269 12.6343 63.8655 13.4186 63.8496 14.3057C63.8179 15.0342 63.9607 15.6761 64.2773 16.2305C64.61 16.785 65.0862 17.2763 65.7041 17.7041C66.3378 18.116 67.0983 18.481 67.9854 18.7979C68.8724 19.1146 69.8707 19.3913 70.9795 19.6289L75.1621 20.5801C77.5699 21.1029 79.6927 21.7997 81.5303 22.6709C83.3839 23.5423 84.9369 24.5801 86.1885 25.7842C87.4557 26.9881 88.4139 28.3742 89.0635 29.9424C89.713 31.5108 90.0457 33.2701 90.0615 35.2188C90.0456 38.292 89.27 40.9298 87.7334 43.1318C86.1967 45.334 83.9859 47.021 81.1025 48.1934C78.235 49.3657 74.7735 49.9521 70.7178 49.9521C66.6462 49.9521 63.0972 49.342 60.0713 48.1221C57.0455 46.9022 54.6929 45.0487 53.0137 42.5615C51.3343 40.0742 50.4704 36.9292 50.4229 33.127H61.6875C61.7826 34.6953 62.2027 36.0023 62.9473 37.0479C63.6919 38.0935 64.7136 38.8862 66.0127 39.4248C67.3276 39.9634 68.8484 40.2324 70.5752 40.2324C72.1595 40.2324 73.5062 40.0186 74.6152 39.5908C75.74 39.1631 76.6031 38.569 77.2051 37.8086C77.8071 37.0481 78.116 36.1766 78.1318 35.1943C78.1159 34.2756 77.8308 33.4913 77.2764 32.8418C76.7219 32.1766 75.8663 31.6061 74.71 31.1309C73.5694 30.6398 72.112 30.1882 70.3379 29.7764L65.252 28.5879C61.0379 27.6215 57.7188 26.0608 55.2949 23.9062C52.8712 21.7359 51.6668 18.8054 51.6826 15.1143C51.6668 12.1041 52.4746 9.46571 54.1064 7.2002C55.7382 4.93472 57.9965 3.16877 60.8799 1.90137C63.7631 0.634058 67.0501 4.93332e-05 70.7412 0ZM150.215 0C152.837 0 155.151 0.545036 157.156 1.63477C159.162 2.70869 160.789 4.20907 162.036 6.13574C163.284 8.06235 164.065 10.2811 164.381 12.792H160.022C159.58 10.2339 158.53 8.12589 156.872 6.46777C155.214 4.80949 152.994 3.97949 150.215 3.97949C146.235 3.97949 143.155 5.82784 140.976 9.52344C138.796 13.2032 137.698 18.4309 137.683 25.2061H137.991C138.765 23.7689 139.76 22.5287 140.976 21.4863C142.207 20.4282 143.605 19.6068 145.169 19.0225C146.732 18.4224 148.375 18.123 150.097 18.123C152.797 18.1231 155.269 18.8096 157.512 20.1836C159.754 21.5417 161.546 23.4133 162.889 25.7979C164.231 28.1668 164.902 30.8757 164.902 33.9238C164.902 36.8139 164.263 39.4751 162.983 41.9072C161.72 44.3392 159.936 46.2738 157.63 47.7109C155.34 49.1481 152.647 49.8585 149.552 49.8428C147.546 49.827 145.588 49.4244 143.677 48.6348C141.766 47.8293 140.044 46.5423 138.512 44.7734C136.98 42.9888 135.764 40.6354 134.864 37.7139C133.964 34.7922 133.514 31.1995 133.514 26.9355C133.514 22.9873 133.861 19.3699 134.556 16.085C135.251 12.8001 136.293 9.95713 137.683 7.55664C139.072 5.15625 140.81 3.30103 142.895 1.99023C144.979 0.663609 147.419 9.67945e-07 150.215 0ZM112.841 0C115.541 1.33414e-05 117.942 0.584384 120.042 1.75293C122.142 2.90583 123.793 4.47783 124.993 6.46777C126.193 8.45758 126.794 10.6839 126.794 13.1475C126.794 14.9321 126.478 16.6619 125.847 18.3359C125.231 20.01 124.165 21.8736 122.648 23.9268C121.132 25.9799 119.032 28.4908 116.347 31.46L104.312 44.8916V45.2002H128.311V49.1797H98.1533V45.9346L114.002 28.1201C116.071 25.7827 117.737 23.7843 119 22.126C120.263 20.4677 121.18 18.9358 121.748 17.5303C122.332 16.1247 122.625 14.6636 122.625 13.1475C122.625 11.2998 122.19 9.68934 121.321 8.31543C120.468 6.92563 119.292 5.8432 117.792 5.06934C116.292 4.29553 114.602 3.90923 112.723 3.90918C110.733 3.90918 108.988 4.33571 107.487 5.18848C106.003 6.04131 104.85 7.20978 104.028 8.69434C103.207 10.1789 102.796 11.8848 102.796 13.8115H98.5557C98.5557 11.1268 99.1715 8.74951 100.403 6.68066C101.651 4.59597 103.349 2.96086 105.497 1.77637C107.661 0.591983 110.109 0 112.841 0ZM149.552 22.1025C147.941 22.1025 146.441 22.4344 145.051 23.0977C143.661 23.7452 142.452 24.6373 141.426 25.7744C140.415 26.8957 139.641 28.1829 139.104 29.6357C138.583 31.0887 138.385 32.6129 138.512 34.208C138.685 36.4347 139.262 38.4324 140.241 40.2012C141.236 41.9542 142.532 43.3369 144.127 44.3477C145.738 45.3582 147.546 45.8633 149.552 45.8633C151.668 45.8632 153.556 45.3268 155.214 44.2529C156.888 43.179 158.207 41.7417 159.17 39.9414C160.133 38.1252 160.614 36.119 160.614 33.9238C160.614 31.7287 160.133 29.7387 159.17 27.9541C158.207 26.1695 156.888 24.7476 155.214 23.6895C153.556 22.6313 151.668 22.1026 149.552 22.1025Z" fill="black"/>
<path d="M23.2646 0C26.0846 0 28.707 0.403971 31.1309 1.21191C33.5706 2.01987 35.7253 3.16049 37.5947 4.63379C39.48 6.10717 41.0093 7.85787 42.1816 9.88574C43.354 11.9136 44.082 14.1396 44.3672 16.5635H32.4619C32.1926 15.5654 31.7962 14.6862 31.2734 13.9258C30.7506 13.1495 30.1091 12.4918 29.3486 11.9531C28.5882 11.4145 27.7166 11.0105 26.7344 10.7412C25.7523 10.4561 24.6751 10.3135 23.5029 10.3135C21.1426 10.3135 19.0988 10.8839 17.3721 12.0244C15.6612 13.165 14.338 14.8286 13.4033 17.0146C12.4686 19.1851 12.001 21.8235 12.001 24.9287C12.001 28.0496 12.4525 30.711 13.3555 32.9131C14.2585 35.1151 15.5654 36.7947 17.2764 37.9512C18.9874 39.1077 21.0631 39.6865 23.5029 39.6865C25.6575 39.6865 27.4796 39.3377 28.9688 38.6406C30.4737 37.9277 31.6144 36.9211 32.3906 35.6221C33.128 34.3879 33.5149 32.9466 33.5518 31.2979H23.9062V22.7188H44.8906V29.1582C44.8906 33.5149 43.9639 37.2464 42.1104 40.3516C40.2726 43.4567 37.7377 45.8414 34.5059 47.5049C31.2898 49.1684 27.5897 50 23.4072 50C18.7655 49.9999 14.6859 48.9934 11.1689 46.9814C7.65198 44.9694 4.91074 42.1019 2.94629 38.3789C0.981922 34.6401 1.39729e-05 30.2041 0 25.0713C0 21.0789 0.594019 17.5376 1.78223 14.4482C2.97043 11.3432 4.62616 8.71314 6.74902 6.55859C8.88772 4.4041 11.3591 2.77205 14.1631 1.66309C16.983 0.554144 20.0171 5.14237e-05 23.2646 0ZM70.7412 0C74.5118 0 77.7842 0.641541 80.5566 1.9248C83.3447 3.19218 85.5073 4.97446 87.0439 7.27148C88.5807 9.56868 89.3648 12.2309 89.3965 15.2568H78.1318C77.9734 13.5143 77.2689 12.1597 76.0176 11.1934C74.7818 10.2111 73.015 9.71973 70.7178 9.71973C69.1971 9.71974 67.9299 9.91752 66.916 10.3135C65.9021 10.7095 65.1408 11.256 64.6338 11.9531C64.1269 12.6343 63.8655 13.4186 63.8496 14.3057C63.8179 15.0342 63.9607 15.6761 64.2773 16.2305C64.61 16.785 65.0862 17.2763 65.7041 17.7041C66.3378 18.116 67.0983 18.481 67.9854 18.7979C68.8724 19.1146 69.8707 19.3913 70.9795 19.6289L75.1621 20.5801C77.5699 21.1029 79.6927 21.7997 81.5303 22.6709C83.3839 23.5423 84.9369 24.5801 86.1885 25.7842C87.4557 26.9881 88.4139 28.3742 89.0635 29.9424C89.713 31.5108 90.0457 33.2701 90.0615 35.2188C90.0456 38.292 89.27 40.9298 87.7334 43.1318C86.1967 45.334 83.9859 47.021 81.1025 48.1934C78.235 49.3657 74.7735 49.9521 70.7178 49.9521C66.6462 49.9521 63.0972 49.342 60.0713 48.1221C57.0455 46.9022 54.6929 45.0487 53.0137 42.5615C51.3343 40.0742 50.4704 36.9292 50.4229 33.127H61.6875C61.7826 34.6953 62.2027 36.0023 62.9473 37.0479C63.6919 38.0935 64.7136 38.8862 66.0127 39.4248C67.3276 39.9634 68.8484 40.2324 70.5752 40.2324C72.1595 40.2324 73.5062 40.0186 74.6152 39.5908C75.74 39.1631 76.6031 38.569 77.2051 37.8086C77.8071 37.0481 78.116 36.1766 78.1318 35.1943C78.1159 34.2756 77.8308 33.4913 77.2764 32.8418C76.7219 32.1766 75.8663 31.6061 74.71 31.1309C73.5694 30.6398 72.112 30.1882 70.3379 29.7764L65.252 28.5879C61.0379 27.6215 57.7188 26.0608 55.2949 23.9062C52.8712 21.7359 51.6668 18.8054 51.6826 15.1143C51.6668 12.1041 52.4746 9.46571 54.1064 7.2002C55.7382 4.93472 57.9965 3.16877 60.8799 1.90137C63.7631 0.634058 67.0501 4.93332e-05 70.7412 0ZM150.215 0C152.837 0 155.151 0.545036 157.156 1.63477C159.162 2.70869 160.789 4.20907 162.036 6.13574C163.284 8.06235 164.065 10.2811 164.381 12.792H160.022C159.58 10.2339 158.53 8.12589 156.872 6.46777C155.214 4.80949 152.994 3.97949 150.215 3.97949C146.235 3.97949 143.155 5.82784 140.976 9.52344C138.796 13.2032 137.698 18.4309 137.683 25.2061H137.991C138.765 23.7689 139.76 22.5287 140.976 21.4863C142.207 20.4282 143.605 19.6068 145.169 19.0225C146.732 18.4224 148.375 18.123 150.097 18.123C152.797 18.1231 155.269 18.8096 157.512 20.1836C159.754 21.5417 161.546 23.4133 162.889 25.7979C164.231 28.1668 164.902 30.8757 164.902 33.9238C164.902 36.8139 164.263 39.4751 162.983 41.9072C161.72 44.3392 159.936 46.2738 157.63 47.7109C155.34 49.1481 152.647 49.8585 149.552 49.8428C147.546 49.827 145.588 49.4244 143.677 48.6348C141.766 47.8293 140.044 46.5423 138.512 44.7734C136.98 42.9888 135.764 40.6354 134.864 37.7139C133.964 34.7922 133.514 31.1995 133.514 26.9355C133.514 22.9873 133.861 19.3699 134.556 16.085C135.251 12.8001 136.293 9.95713 137.683 7.55664C139.072 5.15625 140.81 3.30103 142.895 1.99023C144.979 0.663609 147.419 9.67945e-07 150.215 0ZM112.841 0C115.541 1.33414e-05 117.942 0.584384 120.042 1.75293C122.142 2.90583 123.793 4.47783 124.993 6.46777C126.193 8.45758 126.794 10.6839 126.794 13.1475C126.794 14.9321 126.478 16.6619 125.847 18.3359C125.231 20.01 124.165 21.8736 122.648 23.9268C121.132 25.9799 119.032 28.4908 116.347 31.46L104.312 44.8916V45.2002H128.311V49.1797H98.1533V45.9346L114.002 28.1201C116.071 25.7827 117.737 23.7843 119 22.126C120.263 20.4677 121.18 18.9358 121.748 17.5303C122.332 16.1247 122.625 14.6636 122.625 13.1475C122.625 11.2998 122.19 9.68934 121.321 8.31543C120.468 6.92563 119.292 5.8432 117.792 5.06934C116.292 4.29553 114.602 3.90923 112.723 3.90918C110.733 3.90918 108.988 4.33571 107.487 5.18848C106.003 6.04131 104.85 7.20978 104.028 8.69434C103.207 10.1789 102.796 11.8848 102.796 13.8115H98.5557C98.5557 11.1268 99.1715 8.74951 100.403 6.68066C101.651 4.59597 103.349 2.96086 105.497 1.77637C107.661 0.591983 110.109 0 112.841 0ZM149.552 22.1025C147.941 22.1025 146.441 22.4344 145.051 23.0977C143.661 23.7452 142.452 24.6373 141.426 25.7744C140.415 26.8957 139.641 28.1829 139.104 29.6357C138.583 31.0887 138.385 32.6129 138.512 34.208C138.685 36.4347 139.262 38.4324 140.241 40.2012C141.236 41.9542 142.532 43.3369 144.127 44.3477C145.738 45.3582 147.546 45.8633 149.552 45.8633C151.668 45.8632 153.556 45.3268 155.214 44.2529C156.888 43.179 158.207 41.7417 159.17 39.9414C160.133 38.1252 160.614 36.119 160.614 33.9238C160.614 31.7287 160.133 29.7387 159.17 27.9541C158.207 26.1695 156.888 24.7476 155.214 23.6895C153.556 22.6313 151.668 22.1026 149.552 22.1025Z" fill="url(#paint0_linear_3_113)"/>
<path d="M177.374 27V15.8462H181.774C182.62 15.8462 183.341 16.0078 183.937 16.3309C184.532 16.6504 184.986 17.0952 185.298 17.6652C185.614 18.2316 185.772 18.8852 185.772 19.6259C185.772 20.3665 185.612 21.0201 185.293 21.5865C184.973 22.1529 184.51 22.594 183.904 22.9099C183.301 23.2258 182.571 23.3837 181.715 23.3837H178.91V21.4939H181.333C181.787 21.4939 182.161 21.4158 182.455 21.2597C182.753 21.1 182.974 20.8803 183.12 20.6007C183.269 20.3175 183.343 19.9926 183.343 19.6259C183.343 19.2555 183.269 18.9324 183.12 18.6564C182.974 18.3769 182.753 18.1608 182.455 18.0083C182.158 17.8522 181.78 17.7742 181.322 17.7742H179.732V27H177.374ZM197.553 21.4231C197.553 22.6394 197.323 23.6742 196.862 24.5274C196.404 25.3807 195.78 26.0324 194.988 26.4826C194.2 26.9292 193.314 27.1525 192.331 27.1525C191.339 27.1525 190.45 26.9274 189.662 26.4772C188.874 26.0269 188.251 25.3752 187.794 24.522C187.336 23.6687 187.108 22.6358 187.108 21.4231C187.108 20.2068 187.336 19.172 187.794 18.3188C188.251 17.4655 188.874 16.8156 189.662 16.369C190.45 15.9188 191.339 15.6937 192.331 15.6937C193.314 15.6937 194.2 15.9188 194.988 16.369C195.78 16.8156 196.404 17.4655 196.862 18.3188C197.323 19.172 197.553 20.2068 197.553 21.4231ZM195.163 21.4231C195.163 20.6352 195.045 19.9708 194.809 19.4298C194.576 18.8888 194.248 18.4785 193.823 18.199C193.398 17.9194 192.901 17.7796 192.331 17.7796C191.761 17.7796 191.263 17.9194 190.838 18.199C190.413 18.4785 190.083 18.8888 189.847 19.4298C189.615 19.9708 189.499 20.6352 189.499 21.4231C189.499 22.211 189.615 22.8754 189.847 23.4164C190.083 23.9574 190.413 24.3677 190.838 24.6472C191.263 24.9268 191.761 25.0666 192.331 25.0666C192.901 25.0666 193.398 24.9268 193.823 24.6472C194.248 24.3677 194.576 23.9574 194.809 23.4164C195.045 22.8754 195.163 22.211 195.163 21.4231ZM201.392 27L198.2 15.8462H200.776L202.622 23.5961H202.715L204.752 15.8462H206.958L208.989 23.6125H209.087L210.933 15.8462H213.509L210.318 27H208.02L205.896 19.7076H205.808L203.69 27H201.392ZM214.772 27V15.8462H222.287V17.7905H217.13V20.4482H221.901V22.3925H217.13V25.0557H222.309V27H214.772ZM224.162 27V15.8462H228.563C229.405 15.8462 230.124 15.9969 230.719 16.2982C231.318 16.596 231.774 17.019 232.086 17.5672C232.402 18.1118 232.56 18.7527 232.56 19.4897C232.56 20.2304 232.4 20.8676 232.081 21.4013C231.761 21.9314 231.298 22.3381 230.692 22.6213C230.089 22.9045 229.36 23.0461 228.503 23.0461H225.556V21.1508H228.122C228.572 21.1508 228.946 21.0891 229.243 20.9656C229.541 20.8422 229.763 20.657 229.908 20.4101C230.057 20.1632 230.131 19.8564 230.131 19.4897C230.131 19.1194 230.057 18.8071 229.908 18.553C229.763 18.2988 229.539 18.1064 229.238 17.9757C228.94 17.8413 228.564 17.7742 228.111 17.7742H226.52V27H224.162ZM230.186 21.9242L232.958 27H230.354L227.642 21.9242H230.186ZM234.227 27V15.8462H241.742V17.7905H236.585V20.4482H241.356V22.3925H236.585V25.0557H241.764V27H234.227ZM247.571 27H243.617V15.8462H247.604C248.726 15.8462 249.692 16.0695 250.501 16.5161C251.311 16.959 251.934 17.5963 252.369 18.4277C252.809 19.2592 253.028 20.254 253.028 21.4122C253.028 22.5741 252.809 23.5725 252.369 24.4076C251.934 25.2427 251.307 25.8835 250.49 26.3301C249.677 26.7767 248.704 27 247.571 27ZM245.975 24.9795H247.473C248.17 24.9795 248.757 24.856 249.232 24.6091C249.712 24.3586 250.071 23.9719 250.311 23.4491C250.554 22.9226 250.676 22.2437 250.676 21.4122C250.676 20.588 250.554 19.9145 250.311 19.3917C250.071 18.8688 249.713 18.484 249.238 18.2371C248.762 17.9902 248.176 17.8667 247.479 17.8667H245.975V24.9795ZM177.374 46V34.8462H181.84C182.66 34.8462 183.345 34.9678 183.893 35.2111C184.441 35.4544 184.853 35.792 185.129 36.2241C185.405 36.6525 185.543 37.1463 185.543 37.7055C185.543 38.1412 185.456 38.5242 185.282 38.8546C185.108 39.1814 184.868 39.4501 184.563 39.6606C184.262 39.8676 183.917 40.0146 183.528 40.1018V40.2107C183.953 40.2289 184.351 40.3487 184.721 40.5702C185.095 40.7916 185.398 41.1021 185.63 41.5015C185.863 41.8972 185.979 42.3692 185.979 42.9175C185.979 43.5093 185.832 44.0376 185.538 44.5023C185.247 44.9634 184.817 45.3283 184.247 45.597C183.677 45.8657 182.974 46 182.139 46H177.374ZM179.732 44.0721H181.655C182.312 44.0721 182.791 43.9468 183.092 43.6963C183.394 43.4421 183.544 43.1044 183.544 42.6833C183.544 42.3747 183.47 42.1023 183.321 41.8663C183.172 41.6303 182.96 41.4452 182.684 41.3108C182.412 41.1765 182.087 41.1093 181.709 41.1093H179.732V44.0721ZM179.732 39.5136H181.48C181.804 39.5136 182.09 39.4573 182.341 39.3448C182.595 39.2286 182.795 39.0652 182.94 38.8546C183.089 38.644 183.163 38.3917 183.163 38.0976C183.163 37.6946 183.02 37.3696 182.733 37.1227C182.45 36.8758 182.047 36.7524 181.524 36.7524H179.732V39.5136ZM186.86 34.8462H189.501L192.045 39.6497H192.154L194.697 34.8462H197.338L193.27 42.057V46H190.928V42.057L186.86 34.8462ZM206.642 34.8462H208.973V42.6234C208.973 43.3423 208.811 43.9668 208.488 44.4969C208.169 45.0269 207.724 45.4354 207.154 45.7222C206.584 46.0091 205.921 46.1525 205.166 46.1525C204.494 46.1525 203.884 46.0345 203.336 45.7985C202.791 45.5589 202.359 45.1958 202.04 44.7093C201.72 44.2191 201.562 43.6037 201.566 42.863H203.913C203.92 43.1571 203.98 43.4094 204.093 43.62C204.209 43.827 204.367 43.9867 204.567 44.0993C204.77 44.2082 205.01 44.2627 205.286 44.2627C205.576 44.2627 205.821 44.2009 206.021 44.0775C206.224 43.9504 206.379 43.7652 206.484 43.522C206.589 43.2787 206.642 42.9792 206.642 42.6234V34.8462ZM210.269 34.8462H212.91L215.454 39.6497H215.563L218.106 34.8462H220.747L216.679 42.057V46H214.337V42.057L210.269 34.8462ZM231.365 34.8462V46H229.328L224.475 38.9799H224.394V46H222.035V34.8462H224.105L228.919 41.8609H229.017V34.8462H231.365ZM235.524 34.8462L237.774 38.6476H237.861L240.121 34.8462H242.784L239.38 40.4231L242.86 46H240.148L237.861 42.1931H237.774L235.486 46H232.785L236.276 40.4231L232.85 34.8462H235.524Z" fill="#52C8FB"/>
<defs>
<linearGradient id="paint0_linear_3_113" x1="15.3365" y1="59.8904" x2="72.5577" y2="-52.8583" gradientUnits="userSpaceOnUse">
<stop stop-color="white"/>
<stop offset="0.88142" stop-color="#52C8FB"/>
</linearGradient>
</defs>
</svg>
