<svg width="524" height="490" viewBox="0 0 524 490" fill="none" xmlns="http://www.w3.org/2000/svg">
<path d="M22.5306 451.697V428.822H31.5554C33.2904 428.822 34.7685 429.154 35.9897 429.816C37.2108 430.472 38.1416 431.384 38.782 432.553C39.4298 433.714 39.7537 435.055 39.7537 436.574C39.7537 438.093 39.4261 439.433 38.7708 440.595C38.1156 441.756 37.1662 442.661 35.9226 443.309C34.6866 443.957 33.1899 444.281 31.4326 444.281H25.6804V440.405H30.6507C31.5815 440.405 32.3485 440.245 32.9516 439.925C33.5622 439.597 34.0164 439.146 34.3143 438.573C34.6196 437.992 34.7722 437.326 34.7722 436.574C34.7722 435.814 34.6196 435.152 34.3143 434.586C34.0164 434.012 33.5622 433.569 32.9516 433.257C32.341 432.936 31.5666 432.776 30.6284 432.776H27.3669V451.697H22.5306ZM76.5757 440.26C76.5757 442.754 76.1029 444.876 75.1572 446.626C74.219 448.376 72.9382 449.713 71.3149 450.636C69.6991 451.552 67.8822 452.01 65.8643 452.01C63.8315 452.01 62.0072 451.548 60.3913 450.625C58.7755 449.701 57.4985 448.365 56.5603 446.615C55.622 444.865 55.1529 442.747 55.1529 440.26C55.1529 437.765 55.622 435.643 56.5603 433.893C57.4985 432.143 58.7755 430.81 60.3913 429.895C62.0072 428.971 63.8315 428.51 65.8643 428.51C67.8822 428.51 69.6991 428.971 71.3149 429.895C72.9382 430.81 74.219 432.143 75.1572 433.893C76.1029 435.643 76.5757 437.765 76.5757 440.26ZM71.6724 440.26C71.6724 438.644 71.4304 437.281 70.9464 436.172C70.4698 435.062 69.7959 434.221 68.9247 433.647C68.0535 433.074 67.0334 432.787 65.8643 432.787C64.6953 432.787 63.6751 433.074 62.8039 433.647C61.9327 434.221 61.2551 435.062 60.7711 436.172C60.2945 437.281 60.0563 438.644 60.0563 440.26C60.0563 441.876 60.2945 443.238 60.7711 444.348C61.2551 445.457 61.9327 446.299 62.8039 446.872C63.6751 447.445 64.6953 447.732 65.8643 447.732C67.0334 447.732 68.0535 447.445 68.9247 446.872C69.7959 446.299 70.4698 445.457 70.9464 444.348C71.4304 443.238 71.6724 441.876 71.6724 440.26ZM97.1072 451.697L90.562 428.822H95.8451L99.6315 444.716H99.8214L103.999 428.822H108.522L112.688 444.75H112.889L116.676 428.822H121.959L115.414 451.697H110.7L106.344 436.741H106.166L101.821 451.697H97.1072ZM137.207 451.697V428.822H152.621V432.81H142.044V438.26H151.828V442.248H142.044V447.71H152.666V451.697H137.207ZM169.126 451.697V428.822H178.151C179.878 428.822 181.353 429.131 182.574 429.749C183.803 430.36 184.737 431.227 185.377 432.352C186.025 433.469 186.349 434.783 186.349 436.295C186.349 437.814 186.021 439.12 185.366 440.215C184.711 441.302 183.762 442.136 182.518 442.717C181.282 443.298 179.785 443.588 178.028 443.588H171.985V439.701H177.246C178.169 439.701 178.936 439.575 179.547 439.321C180.158 439.068 180.612 438.689 180.91 438.182C181.215 437.676 181.368 437.047 181.368 436.295C181.368 435.535 181.215 434.895 180.91 434.373C180.612 433.852 180.154 433.458 179.536 433.19C178.925 432.914 178.155 432.776 177.224 432.776H173.962V451.697H169.126ZM181.479 441.287L187.164 451.697H181.826L176.263 441.287H181.479ZM202.427 451.697V428.822H217.841V432.81H207.263V438.26H217.047V442.248H207.263V447.71H217.885V451.697H202.427ZM242.454 451.697H234.345V428.822H242.521C244.822 428.822 246.803 429.28 248.464 430.196C250.124 431.105 251.401 432.411 252.295 434.117C253.196 435.822 253.646 437.862 253.646 440.237C253.646 442.62 253.196 444.668 252.295 446.38C251.401 448.093 250.117 449.407 248.441 450.323C246.773 451.239 244.778 451.697 242.454 451.697ZM239.182 447.553H242.253C243.683 447.553 244.886 447.3 245.861 446.794C246.844 446.28 247.581 445.487 248.073 444.415C248.571 443.335 248.821 441.943 248.821 440.237C248.821 438.547 248.571 437.166 248.073 436.094C247.581 435.021 246.848 434.232 245.872 433.726C244.897 433.219 243.694 432.966 242.265 432.966H239.182V447.553ZM289.828 451.697V428.822H298.987C300.67 428.822 302.073 429.072 303.198 429.571C304.322 430.07 305.167 430.762 305.733 431.648C306.299 432.527 306.582 433.539 306.582 434.686C306.582 435.58 306.403 436.365 306.046 437.043C305.689 437.713 305.197 438.264 304.572 438.696C303.954 439.12 303.246 439.422 302.449 439.601V439.824C303.321 439.861 304.136 440.107 304.896 440.561C305.662 441.015 306.284 441.652 306.761 442.471C307.237 443.283 307.476 444.251 307.476 445.375C307.476 446.589 307.174 447.672 306.571 448.626C305.975 449.571 305.093 450.32 303.924 450.871C302.755 451.422 301.314 451.697 299.601 451.697H289.828ZM294.664 447.743H298.607C299.955 447.743 300.938 447.486 301.556 446.972C302.174 446.451 302.483 445.759 302.483 444.895C302.483 444.262 302.33 443.704 302.025 443.22C301.72 442.736 301.284 442.356 300.718 442.08C300.16 441.805 299.493 441.667 298.719 441.667H294.664V447.743ZM294.664 438.394H298.25C298.912 438.394 299.501 438.279 300.015 438.048C300.536 437.81 300.945 437.475 301.243 437.043C301.548 436.611 301.701 436.094 301.701 435.49C301.701 434.664 301.407 433.997 300.819 433.491C300.238 432.985 299.411 432.732 298.339 432.732H294.664V438.394ZM321.942 428.822H327.359L332.575 438.674H332.799L338.015 428.822H343.432L335.088 443.61V451.697H330.286V443.61L321.942 428.822ZM387.832 428.822H392.612V444.772C392.612 446.246 392.281 447.527 391.618 448.614C390.963 449.701 390.051 450.539 388.882 451.127C387.713 451.716 386.354 452.01 384.805 452.01C383.427 452.01 382.176 451.768 381.052 451.284C379.935 450.792 379.049 450.048 378.394 449.05C377.738 448.045 377.415 446.783 377.422 445.264H382.236C382.251 445.867 382.374 446.384 382.605 446.816C382.843 447.241 383.167 447.568 383.576 447.799C383.993 448.022 384.485 448.134 385.051 448.134C385.646 448.134 386.149 448.007 386.559 447.754C386.975 447.494 387.292 447.114 387.508 446.615C387.724 446.116 387.832 445.502 387.832 444.772V428.822ZM407.931 428.822H413.348L418.564 438.674H418.787L424.003 428.822H429.42L421.077 443.61V451.697H416.274V443.61L407.931 428.822ZM463.855 428.822V451.697H459.677L449.726 437.3H449.558V451.697H444.722V428.822H448.966L458.84 443.208H459.041V428.822H463.855ZM485.045 428.822L489.658 436.618H489.837L494.472 428.822H499.934L492.953 440.26L500.09 451.697H494.528L489.837 443.89H489.658L484.967 451.697H479.427L486.587 440.26L479.561 428.822H485.045Z" fill="#0369a1"/>
<path d="M196.955 223.174C207.589 223.174 216.693 226.442 224.267 232.978C231.893 239.514 237.755 248.904 241.853 261.147C245.951 273.39 248 288.019 248 305.034C248 322.101 245.951 336.755 241.853 348.998C237.807 361.188 231.971 370.552 224.345 377.088C216.72 383.625 207.589 386.893 196.955 386.893C186.32 386.893 177.19 383.625 169.565 377.088C161.939 370.552 156.077 361.188 151.979 348.998C147.933 336.755 145.91 322.101 145.91 305.034C145.91 288.019 147.959 273.39 152.057 261.147C156.155 248.904 161.991 239.514 169.565 232.978C177.19 226.442 186.32 223.174 196.955 223.174ZM458.52 223.174C466.716 223.174 473.928 224.964 480.153 228.544C486.43 232.071 491.435 236.999 495.17 243.328C498.905 249.605 501.162 256.893 501.94 265.193H492.292C491.202 255.493 487.726 247.582 481.865 241.461C476.055 235.287 468.273 232.201 458.52 232.201C444.721 232.201 434.164 238.945 426.85 252.432C419.588 265.92 415.957 285.217 415.957 310.325H416.813C418.888 305.345 421.948 300.961 425.995 297.174C430.093 293.336 434.814 290.353 440.157 288.226C445.5 286.099 451.128 285.036 457.042 285.036C465.653 285.036 473.513 287.241 480.62 291.65C487.778 296.059 493.51 302.103 497.816 309.78C502.122 317.457 504.275 326.147 504.275 335.847C504.275 345.029 502.277 353.511 498.283 361.293C494.288 369.022 488.712 375.247 481.553 379.967C474.446 384.636 466.146 386.945 456.653 386.893C449.961 386.841 443.606 385.414 437.588 382.613C431.571 379.76 426.228 375.35 421.559 369.384C416.942 363.367 413.285 355.638 410.587 346.197C407.942 336.704 406.62 325.343 406.62 312.115C406.62 300.236 407.553 288.952 409.42 278.266C411.34 267.58 414.349 258.112 418.447 249.864C422.545 241.564 427.888 235.053 434.476 230.333C441.116 225.56 449.131 223.174 458.52 223.174ZM65.6772 223.174C74.1328 223.174 81.6546 225.016 88.2427 228.699C94.8308 232.382 100.018 237.414 103.805 243.794C107.592 250.123 109.486 257.282 109.486 265.271C109.486 271.133 108.474 276.787 106.451 282.234C104.479 287.629 101.082 293.673 96.2573 300.365C91.4329 307.005 84.7667 315.201 76.2593 324.954L32.9956 374.832V375.687H116.644V384.713H18.9888V377.322L70.5796 317.873C77.9458 309.365 83.7818 302.155 88.0874 296.241C92.3931 290.327 95.4797 284.983 97.3472 280.211C99.2145 275.438 100.148 270.458 100.148 265.271C100.148 258.787 98.6178 253.054 95.5571 248.074C92.5484 243.042 88.4242 239.126 83.1851 236.325C77.9976 233.524 72.0838 232.123 65.4438 232.123C58.4926 232.123 52.3971 233.653 47.1577 236.713C41.9183 239.774 37.8197 243.924 34.8628 249.164C31.9579 254.403 30.5054 260.291 30.5054 266.827H21.0903C21.0904 258.579 23.0095 251.161 26.8481 244.573C30.6869 237.985 35.9522 232.771 42.644 228.932C49.3878 225.093 57.0659 223.174 65.6772 223.174ZM324.826 223.174C333.281 223.174 340.804 225.016 347.392 228.699C353.98 232.382 359.168 237.414 362.955 243.794C366.741 250.123 368.635 257.282 368.635 265.271C368.635 271.133 367.623 276.787 365.6 282.234C363.629 287.629 360.231 293.673 355.407 300.365C350.582 307.005 343.916 315.201 335.409 324.954L292.145 374.832V375.688H375.793V384.713H278.138V377.322L329.728 317.873C337.094 309.365 342.93 302.155 347.236 296.241C351.541 290.327 354.628 284.984 356.496 280.211C358.363 275.439 359.297 270.459 359.297 265.271C359.297 258.787 357.767 253.054 354.707 248.074C351.698 243.042 347.574 239.126 342.334 236.325C337.147 233.524 331.232 232.123 324.592 232.123C317.641 232.123 311.545 233.653 306.306 236.713C301.067 239.774 296.969 243.924 294.012 249.164C291.107 254.403 289.655 260.291 289.655 266.827H280.24C280.24 258.579 282.159 251.161 285.998 244.573C289.836 237.985 295.102 232.771 301.793 228.932C308.537 225.093 316.215 223.174 324.826 223.174ZM196.955 232.123C184.038 232.123 173.896 238.556 166.53 251.42C159.164 264.286 155.481 282.157 155.481 305.034C155.481 320.285 157.14 333.358 160.46 344.252C163.78 355.093 168.528 363.419 174.701 369.229C180.926 374.987 188.343 377.867 196.955 377.867C209.872 377.867 220.013 371.459 227.379 358.646C234.746 345.781 238.429 327.91 238.429 305.034C238.429 289.783 236.743 276.71 233.372 265.816C230.052 254.922 225.305 246.596 219.131 240.837C212.958 235.028 205.566 232.123 196.955 232.123ZM456.031 294.062C450.325 294.062 445.033 295.229 440.157 297.563C435.281 299.845 431.079 303.01 427.551 307.056C424.076 311.102 421.507 315.746 419.847 320.985C418.239 326.172 417.799 331.646 418.525 337.404C419.718 345.756 422.052 352.966 425.528 359.036C429.055 365.053 433.465 369.696 438.756 372.964C444.099 376.232 450.065 377.867 456.653 377.867C463.915 377.867 470.4 375.973 476.106 372.186C481.864 368.399 486.403 363.341 489.723 357.012C493.043 350.632 494.704 343.577 494.704 335.847C494.704 328.066 492.992 321.011 489.568 314.682C486.144 308.353 481.501 303.348 475.639 299.665C469.829 295.93 463.293 294.062 456.031 294.062ZM49.186 122.919C55.4675 122.919 60.9179 123.989 65.5366 126.127C70.1816 128.238 73.7842 131.207 76.3442 135.034C78.9043 138.861 80.2113 143.295 80.2642 148.336H61.4985C61.2345 145.433 60.06 143.176 57.9751 141.566C55.9165 139.93 52.9737 139.112 49.147 139.112C46.6135 139.112 44.502 139.441 42.813 140.101C41.1239 140.761 39.8568 141.672 39.0122 142.834C38.1677 143.968 37.732 145.275 37.7056 146.753C37.6528 147.967 37.8906 149.036 38.4185 149.96C38.9727 150.883 39.7643 151.701 40.7935 152.414C41.8492 153.1 43.1162 153.707 44.5942 154.235C46.0722 154.763 47.7351 155.225 49.5825 155.621L56.5503 157.204C60.5619 158.075 64.0982 159.236 67.1597 160.688C70.2476 162.14 72.8344 163.868 74.9194 165.874C77.0309 167.879 78.6274 170.189 79.7095 172.802C80.7915 175.415 81.3461 178.344 81.3726 181.59C81.3462 186.711 80.0528 191.105 77.4927 194.774C74.9326 198.443 71.2503 201.254 66.4468 203.207C61.6698 205.16 55.9032 206.136 49.147 206.136C42.364 206.136 36.4517 205.12 31.4106 203.087C26.3698 201.055 22.4504 197.967 19.6528 193.824C16.8552 189.68 15.4166 184.441 15.3374 178.107H34.103C34.2614 180.72 34.9612 182.897 36.2017 184.639C37.4421 186.381 39.144 187.701 41.3081 188.598C43.4987 189.496 46.0329 189.944 48.9097 189.944C51.5486 189.944 53.7918 189.588 55.6392 188.876C57.513 188.163 58.9517 187.173 59.9546 185.906C60.9574 184.639 61.4721 183.188 61.4985 181.551C61.4721 180.021 60.9975 178.714 60.0737 177.631C59.15 176.523 57.724 175.574 55.7974 174.782C53.8971 173.964 51.469 173.211 48.5132 172.525L40.0415 170.545C33.0211 168.936 27.4917 166.336 23.4536 162.747C19.4155 159.131 17.4096 154.248 17.436 148.098C17.4097 143.084 18.7558 138.69 21.4741 134.916C24.1926 131.141 27.9539 128.198 32.7573 126.086C37.5606 123.975 43.0369 122.92 49.186 122.919ZM118.55 174.621C118.55 177.418 119.158 179.912 120.372 182.103C121.612 184.294 123.34 186.009 125.557 187.25C127.774 188.49 130.347 189.11 133.277 189.11C136.206 189.11 138.767 188.49 140.958 187.25C143.175 186.009 144.904 184.294 146.144 182.103C147.384 179.913 148.004 177.418 148.004 174.621V124.026H167.561V176.323C167.561 182.367 166.123 187.632 163.247 192.119C160.37 196.579 156.358 200.037 151.211 202.492C146.065 204.92 140.086 206.133 133.277 206.133C126.389 206.133 120.371 204.92 115.225 202.492C110.079 200.037 106.079 196.579 103.229 192.119C100.379 187.632 98.9536 182.367 98.9536 176.323V124.026H118.55V174.621ZM232.39 174.225H233.34L253.926 124.026H278.195V205.104H259.113V155.301H258.44L238.962 204.589H226.768L207.291 155.024H206.618V205.104H187.536V124.026H211.804L232.39 174.225ZM342.959 174.225H343.91L364.496 124.026H388.764V205.104H369.682V155.301H369.009L349.531 204.589H337.337L317.86 155.024H317.187V205.104H298.105V124.026H322.373L342.959 174.225ZM428.27 205.104H408.673V124.026H428.27V205.104ZM514.14 139.941H489.555V205.104H470.236V139.941H445.611V124.026H514.14V139.941ZM55.5601 22.9693C60.2578 22.9693 64.6256 23.6428 68.6636 24.9888C72.7281 26.3349 76.3178 28.2345 79.4321 30.689C82.5728 33.1435 85.1197 36.0599 87.0728 39.438C89.0258 42.8163 90.2403 46.525 90.7153 50.563H70.8804C70.4317 48.9003 69.7718 47.4354 68.9009 46.1685C68.03 44.8754 66.9616 43.7797 65.6948 42.8824C64.428 41.985 62.9757 41.3125 61.3394 40.8638C59.7031 40.3888 57.9085 40.1509 55.9556 40.1509C52.0231 40.151 48.6185 41.1013 45.7417 43.0015C42.8913 44.9018 40.6875 47.6729 39.1304 51.315C37.5732 54.9308 36.7944 59.3256 36.7944 64.4986C36.7945 69.6978 37.5469 74.1319 39.0513 77.8004C40.5557 81.4688 42.7331 84.2663 45.5835 86.1929C48.4339 88.1196 51.8912 89.0826 55.9556 89.0826C59.5449 89.0826 62.5802 88.5026 65.061 87.3414C67.5683 86.1537 69.469 84.4773 70.7622 82.313C71.9908 80.2568 72.6345 77.8551 72.6958 75.108H56.6284V60.816H91.5854V71.5455C91.5854 78.8033 90.0415 85.0191 86.9536 90.192C83.8921 95.3647 79.6695 99.3368 74.2856 102.108C68.9279 104.879 62.765 106.264 55.7974 106.264C48.0643 106.264 41.2679 104.589 35.4087 101.237C29.5497 97.8851 24.9841 93.1079 21.7114 86.9058C18.4387 80.6772 16.8023 73.2871 16.8022 64.7359C16.8022 58.085 17.7916 52.1861 19.771 47.0396C21.7504 41.8667 24.5088 37.4855 28.0454 33.8961C31.6084 30.3067 35.7256 27.5883 40.397 25.7408C45.0949 23.8933 50.1496 22.9693 55.5601 22.9693ZM220.478 22.9693C227.736 22.9693 234.282 24.5795 240.115 27.7994C245.974 31.0193 250.619 35.73 254.05 41.9322C257.481 48.1345 259.197 55.6961 259.197 64.6168C259.197 73.5374 257.481 81.0991 254.05 87.3013C250.619 93.5035 245.974 98.2142 240.115 101.434C234.282 104.654 227.736 106.264 220.478 106.264C213.194 106.264 206.635 104.641 200.802 101.395C194.97 98.1488 190.338 93.4371 186.907 87.2613C183.502 81.0591 181.8 73.5109 181.8 64.6168C181.8 55.696 183.502 48.1345 186.907 41.9322C190.338 35.7301 194.97 31.0193 200.802 27.7994C206.635 24.5795 213.194 22.9694 220.478 22.9693ZM132.343 89.2418H166.073V105.157H112.747V24.0787H132.343V89.2418ZM314.055 24.0787C320.126 24.0787 325.206 24.9364 329.297 26.6519C333.414 28.3674 336.502 30.7691 338.561 33.857C340.646 36.9449 341.688 40.5211 341.688 44.5855C341.688 47.6735 341.042 50.4318 339.749 52.8599C338.455 55.2616 336.674 57.2539 334.404 58.8375C332.134 60.421 329.508 61.5302 326.526 62.1636V62.9547C329.799 63.113 332.82 63.9981 335.591 65.608C338.389 67.2179 340.633 69.4607 342.322 72.3375C344.011 75.1878 344.856 78.5662 344.856 82.4722C344.856 86.827 343.747 90.7199 341.53 94.1509C339.313 97.5556 336.106 100.248 331.91 102.227C327.713 104.18 322.619 105.157 316.628 105.157H280.247V24.0787H314.055ZM441.167 105.157H420.105L414.76 88.1334H386.76L381.427 105.157H360.366L387.721 24.0787H413.811L441.167 105.157ZM479.1 89.2418H512.83V105.157H459.503V24.0787H479.1V89.2418ZM299.843 89.3609H311.958C316.206 89.3608 319.334 88.5557 321.339 86.9459C323.372 85.3359 324.388 83.0922 324.388 80.2154C324.388 78.1306 323.9 76.3359 322.923 74.8316C321.947 73.3008 320.561 72.1263 318.766 71.3082C316.971 70.4637 314.82 70.0416 312.313 70.0416H299.843V89.3609ZM220.478 40.1509C216.598 40.151 213.26 41.0877 210.462 42.9615C207.665 44.8354 205.514 47.5937 204.009 51.2359C202.531 54.8781 201.792 59.3383 201.792 64.6168C201.792 69.8952 202.531 74.3555 204.009 77.9976C205.514 81.6398 207.665 84.3982 210.462 86.272C213.26 88.1458 216.598 89.0825 220.478 89.0826C224.384 89.0826 227.723 88.1459 230.495 86.272C233.292 84.3982 235.43 81.6398 236.908 77.9976C238.412 74.3555 239.165 69.8952 239.165 64.6168C239.165 59.3383 238.412 54.8781 236.908 51.2359C235.43 47.5938 233.292 44.8354 230.495 42.9615C227.723 41.0876 224.384 40.1509 220.478 40.1509ZM391.424 73.2486H410.087L401.063 44.5064H400.429L391.424 73.2486ZM299.843 57.4127H310.69C312.828 57.4127 314.728 57.0559 316.391 56.3433C318.054 55.6307 319.347 54.6014 320.271 53.2554C321.221 51.9095 321.696 50.2864 321.696 48.3863C321.696 45.668 320.733 43.5304 318.806 41.9732C316.88 40.4161 314.28 39.6373 311.007 39.6373H299.843V57.4127Z" fill="url(#paint0_linear_3_125)"/>
<path d="M196.955 223.174C207.589 223.174 216.693 226.442 224.267 232.978C231.893 239.514 237.755 248.904 241.853 261.147C245.951 273.39 248 288.019 248 305.034C248 322.101 245.951 336.755 241.853 348.998C237.807 361.188 231.971 370.552 224.345 377.088C216.72 383.625 207.589 386.893 196.955 386.893C186.32 386.893 177.19 383.625 169.565 377.088C161.939 370.552 156.077 361.188 151.979 348.998C147.933 336.755 145.91 322.101 145.91 305.034C145.91 288.019 147.959 273.39 152.057 261.147C156.155 248.904 161.991 239.514 169.565 232.978C177.19 226.442 186.32 223.174 196.955 223.174ZM458.52 223.174C466.716 223.174 473.928 224.964 480.153 228.544C486.43 232.071 491.435 236.999 495.17 243.328C498.905 249.605 501.162 256.893 501.94 265.193H492.292C491.202 255.493 487.726 247.582 481.865 241.461C476.055 235.287 468.273 232.201 458.52 232.201C444.721 232.201 434.164 238.945 426.85 252.432C419.588 265.92 415.957 285.217 415.957 310.325H416.813C418.888 305.345 421.948 300.961 425.995 297.174C430.093 293.336 434.814 290.353 440.157 288.226C445.5 286.099 451.128 285.036 457.042 285.036C465.653 285.036 473.513 287.241 480.62 291.65C487.778 296.059 493.51 302.103 497.816 309.78C502.122 317.457 504.275 326.147 504.275 335.847C504.275 345.029 502.277 353.511 498.283 361.293C494.288 369.022 488.712 375.247 481.553 379.967C474.446 384.636 466.146 386.945 456.653 386.893C449.961 386.841 443.606 385.414 437.588 382.613C431.571 379.76 426.228 375.35 421.559 369.384C416.942 363.367 413.285 355.638 410.587 346.197C407.942 336.704 406.62 325.343 406.62 312.115C406.62 300.236 407.553 288.952 409.42 278.266C411.34 267.58 414.349 258.112 418.447 249.864C422.545 241.564 427.888 235.053 434.476 230.333C441.116 225.56 449.131 223.174 458.52 223.174ZM65.6772 223.174C74.1328 223.174 81.6546 225.016 88.2427 228.699C94.8308 232.382 100.018 237.414 103.805 243.794C107.592 250.123 109.486 257.282 109.486 265.271C109.486 271.133 108.474 276.787 106.451 282.234C104.479 287.629 101.082 293.673 96.2573 300.365C91.4329 307.005 84.7667 315.201 76.2593 324.954L32.9956 374.832V375.687H116.644V384.713H18.9888V377.322L70.5796 317.873C77.9458 309.365 83.7818 302.155 88.0874 296.241C92.3931 290.327 95.4797 284.983 97.3472 280.211C99.2145 275.438 100.148 270.458 100.148 265.271C100.148 258.787 98.6178 253.054 95.5571 248.074C92.5484 243.042 88.4242 239.126 83.1851 236.325C77.9976 233.524 72.0838 232.123 65.4438 232.123C58.4926 232.123 52.3971 233.653 47.1577 236.713C41.9183 239.774 37.8197 243.924 34.8628 249.164C31.9579 254.403 30.5054 260.291 30.5054 266.827H21.0903C21.0904 258.579 23.0095 251.161 26.8481 244.573C30.6869 237.985 35.9522 232.771 42.644 228.932C49.3878 225.093 57.0659 223.174 65.6772 223.174ZM324.826 223.174C333.281 223.174 340.804 225.016 347.392 228.699C353.98 232.382 359.168 237.414 362.955 243.794C366.741 250.123 368.635 257.282 368.635 265.271C368.635 271.133 367.623 276.787 365.6 282.234C363.629 287.629 360.231 293.673 355.407 300.365C350.582 307.005 343.916 315.201 335.409 324.954L292.145 374.832V375.688H375.793V384.713H278.138V377.322L329.728 317.873C337.094 309.365 342.93 302.155 347.236 296.241C351.541 290.327 354.628 284.984 356.496 280.211C358.363 275.439 359.297 270.459 359.297 265.271C359.297 258.787 357.767 253.054 354.707 248.074C351.698 243.042 347.574 239.126 342.334 236.325C337.147 233.524 331.232 232.123 324.592 232.123C317.641 232.123 311.545 233.653 306.306 236.713C301.067 239.774 296.969 243.924 294.012 249.164C291.107 254.403 289.655 260.291 289.655 266.827H280.24C280.24 258.579 282.159 251.161 285.998 244.573C289.836 237.985 295.102 232.771 301.793 228.932C308.537 225.093 316.215 223.174 324.826 223.174ZM196.955 232.123C184.038 232.123 173.896 238.556 166.53 251.42C159.164 264.286 155.481 282.157 155.481 305.034C155.481 320.285 157.14 333.358 160.46 344.252C163.78 355.093 168.528 363.419 174.701 369.229C180.926 374.987 188.343 377.867 196.955 377.867C209.872 377.867 220.013 371.459 227.379 358.646C234.746 345.781 238.429 327.91 238.429 305.034C238.429 289.783 236.743 276.71 233.372 265.816C230.052 254.922 225.305 246.596 219.131 240.837C212.958 235.028 205.566 232.123 196.955 232.123ZM456.031 294.062C450.325 294.062 445.033 295.229 440.157 297.563C435.281 299.845 431.079 303.01 427.551 307.056C424.076 311.102 421.507 315.746 419.847 320.985C418.239 326.172 417.799 331.646 418.525 337.404C419.718 345.756 422.052 352.966 425.528 359.036C429.055 365.053 433.465 369.696 438.756 372.964C444.099 376.232 450.065 377.867 456.653 377.867C463.915 377.867 470.4 375.973 476.106 372.186C481.864 368.399 486.403 363.341 489.723 357.012C493.043 350.632 494.704 343.577 494.704 335.847C494.704 328.066 492.992 321.011 489.568 314.682C486.144 308.353 481.501 303.348 475.639 299.665C469.829 295.93 463.293 294.062 456.031 294.062ZM49.186 122.919C55.4675 122.919 60.9179 123.989 65.5366 126.127C70.1816 128.238 73.7842 131.207 76.3442 135.034C78.9043 138.861 80.2113 143.295 80.2642 148.336H61.4985C61.2345 145.433 60.06 143.176 57.9751 141.566C55.9165 139.93 52.9737 139.112 49.147 139.112C46.6135 139.112 44.502 139.441 42.813 140.101C41.1239 140.761 39.8568 141.672 39.0122 142.834C38.1677 143.968 37.732 145.275 37.7056 146.753C37.6528 147.967 37.8906 149.036 38.4185 149.96C38.9727 150.883 39.7643 151.701 40.7935 152.414C41.8492 153.1 43.1162 153.707 44.5942 154.235C46.0722 154.763 47.7351 155.225 49.5825 155.621L56.5503 157.204C60.5619 158.075 64.0982 159.236 67.1597 160.688C70.2476 162.14 72.8344 163.868 74.9194 165.874C77.0309 167.879 78.6274 170.189 79.7095 172.802C80.7915 175.415 81.3461 178.344 81.3726 181.59C81.3462 186.711 80.0528 191.105 77.4927 194.774C74.9326 198.443 71.2503 201.254 66.4468 203.207C61.6698 205.16 55.9032 206.136 49.147 206.136C42.364 206.136 36.4517 205.12 31.4106 203.087C26.3698 201.055 22.4504 197.967 19.6528 193.824C16.8552 189.68 15.4166 184.441 15.3374 178.107H34.103C34.2614 180.72 34.9612 182.897 36.2017 184.639C37.4421 186.381 39.144 187.701 41.3081 188.598C43.4987 189.496 46.0329 189.944 48.9097 189.944C51.5486 189.944 53.7918 189.588 55.6392 188.876C57.513 188.163 58.9517 187.173 59.9546 185.906C60.9574 184.639 61.4721 183.188 61.4985 181.551C61.4721 180.021 60.9975 178.714 60.0737 177.631C59.15 176.523 57.724 175.574 55.7974 174.782C53.8971 173.964 51.469 173.211 48.5132 172.525L40.0415 170.545C33.0211 168.936 27.4917 166.336 23.4536 162.747C19.4155 159.131 17.4096 154.248 17.436 148.098C17.4097 143.084 18.7558 138.69 21.4741 134.916C24.1926 131.141 27.9539 128.198 32.7573 126.086C37.5606 123.975 43.0369 122.92 49.186 122.919ZM118.55 174.621C118.55 177.418 119.158 179.912 120.372 182.103C121.612 184.294 123.34 186.009 125.557 187.25C127.774 188.49 130.347 189.11 133.277 189.11C136.206 189.11 138.767 188.49 140.958 187.25C143.175 186.009 144.904 184.294 146.144 182.103C147.384 179.913 148.004 177.418 148.004 174.621V124.026H167.561V176.323C167.561 182.367 166.123 187.632 163.247 192.119C160.37 196.579 156.358 200.037 151.211 202.492C146.065 204.92 140.086 206.133 133.277 206.133C126.389 206.133 120.371 204.92 115.225 202.492C110.079 200.037 106.079 196.579 103.229 192.119C100.379 187.632 98.9536 182.367 98.9536 176.323V124.026H118.55V174.621ZM232.39 174.225H233.34L253.926 124.026H278.195V205.104H259.113V155.301H258.44L238.962 204.589H226.768L207.291 155.024H206.618V205.104H187.536V124.026H211.804L232.39 174.225ZM342.959 174.225H343.91L364.496 124.026H388.764V205.104H369.682V155.301H369.009L349.531 204.589H337.337L317.86 155.024H317.187V205.104H298.105V124.026H322.373L342.959 174.225ZM428.27 205.104H408.673V124.026H428.27V205.104ZM514.14 139.941H489.555V205.104H470.236V139.941H445.611V124.026H514.14V139.941ZM55.5601 22.9693C60.2578 22.9693 64.6256 23.6428 68.6636 24.9888C72.7281 26.3349 76.3178 28.2345 79.4321 30.689C82.5728 33.1435 85.1197 36.0599 87.0728 39.438C89.0258 42.8163 90.2403 46.525 90.7153 50.563H70.8804C70.4317 48.9003 69.7718 47.4354 68.9009 46.1685C68.03 44.8754 66.9616 43.7797 65.6948 42.8824C64.428 41.985 62.9757 41.3125 61.3394 40.8638C59.7031 40.3888 57.9085 40.1509 55.9556 40.1509C52.0231 40.151 48.6185 41.1013 45.7417 43.0015C42.8913 44.9018 40.6875 47.6729 39.1304 51.315C37.5732 54.9308 36.7944 59.3256 36.7944 64.4986C36.7945 69.6978 37.5469 74.1319 39.0513 77.8004C40.5557 81.4688 42.7331 84.2663 45.5835 86.1929C48.4339 88.1196 51.8912 89.0826 55.9556 89.0826C59.5449 89.0826 62.5802 88.5026 65.061 87.3414C67.5683 86.1537 69.469 84.4773 70.7622 82.313C71.9908 80.2568 72.6345 77.8551 72.6958 75.108H56.6284V60.816H91.5854V71.5455C91.5854 78.8033 90.0415 85.0191 86.9536 90.192C83.8921 95.3647 79.6695 99.3368 74.2856 102.108C68.9279 104.879 62.765 106.264 55.7974 106.264C48.0643 106.264 41.2679 104.589 35.4087 101.237C29.5497 97.8851 24.9841 93.1079 21.7114 86.9058C18.4387 80.6772 16.8023 73.2871 16.8022 64.7359C16.8022 58.085 17.7916 52.1861 19.771 47.0396C21.7504 41.8667 24.5088 37.4855 28.0454 33.8961C31.6084 30.3067 35.7256 27.5883 40.397 25.7408C45.0949 23.8933 50.1496 22.9693 55.5601 22.9693ZM220.478 22.9693C227.736 22.9693 234.282 24.5795 240.115 27.7994C245.974 31.0193 250.619 35.73 254.05 41.9322C257.481 48.1345 259.197 55.6961 259.197 64.6168C259.197 73.5374 257.481 81.0991 254.05 87.3013C250.619 93.5035 245.974 98.2142 240.115 101.434C234.282 104.654 227.736 106.264 220.478 106.264C213.194 106.264 206.635 104.641 200.802 101.395C194.97 98.1488 190.338 93.4371 186.907 87.2613C183.502 81.0591 181.8 73.5109 181.8 64.6168C181.8 55.696 183.502 48.1345 186.907 41.9322C190.338 35.7301 194.97 31.0193 200.802 27.7994C206.635 24.5795 213.194 22.9694 220.478 22.9693ZM132.343 89.2418H166.073V105.157H112.747V24.0787H132.343V89.2418ZM314.055 24.0787C320.126 24.0787 325.206 24.9364 329.297 26.6519C333.414 28.3674 336.502 30.7691 338.561 33.857C340.646 36.9449 341.688 40.5211 341.688 44.5855C341.688 47.6735 341.042 50.4318 339.749 52.8599C338.455 55.2616 336.674 57.2539 334.404 58.8375C332.134 60.421 329.508 61.5302 326.526 62.1636V62.9547C329.799 63.113 332.82 63.9981 335.591 65.608C338.389 67.2179 340.633 69.4607 342.322 72.3375C344.011 75.1878 344.856 78.5662 344.856 82.4722C344.856 86.827 343.747 90.7199 341.53 94.1509C339.313 97.5556 336.106 100.248 331.91 102.227C327.713 104.18 322.619 105.157 316.628 105.157H280.247V24.0787H314.055ZM441.167 105.157H420.105L414.76 88.1334H386.76L381.427 105.157H360.366L387.721 24.0787H413.811L441.167 105.157ZM479.1 89.2418H512.83V105.157H459.503V24.0787H479.1V89.2418ZM299.843 89.3609H311.958C316.206 89.3608 319.334 88.5557 321.339 86.9459C323.372 85.3359 324.388 83.0922 324.388 80.2154C324.388 78.1306 323.9 76.3359 322.923 74.8316C321.947 73.3008 320.561 72.1263 318.766 71.3082C316.971 70.4637 314.82 70.0416 312.313 70.0416H299.843V89.3609ZM220.478 40.1509C216.598 40.151 213.26 41.0877 210.462 42.9615C207.665 44.8354 205.514 47.5937 204.009 51.2359C202.531 54.8781 201.792 59.3383 201.792 64.6168C201.792 69.8952 202.531 74.3555 204.009 77.9976C205.514 81.6398 207.665 84.3982 210.462 86.272C213.26 88.1458 216.598 89.0825 220.478 89.0826C224.384 89.0826 227.723 88.1459 230.495 86.272C233.292 84.3982 235.43 81.6398 236.908 77.9976C238.412 74.3555 239.165 69.8952 239.165 64.6168C239.165 59.3383 238.412 54.8781 236.908 51.2359C235.43 47.5938 233.292 44.8354 230.495 42.9615C227.723 41.0876 224.384 40.1509 220.478 40.1509ZM391.424 73.2486H410.087L401.063 44.5064H400.429L391.424 73.2486ZM299.843 57.4127H310.69C312.828 57.4127 314.728 57.0559 316.391 56.3433C318.054 55.6307 319.347 54.6014 320.271 53.2554C321.221 51.9095 321.696 50.2864 321.696 48.3863C321.696 45.668 320.733 43.5304 318.806 41.9732C316.88 40.4161 314.28 39.6373 311.007 39.6373H299.843V57.4127Z" fill="black"/>
<defs>
<linearGradient id="paint0_linear_3_125" x1="264.739" y1="22.9693" x2="264.739" y2="386.894" gradientUnits="userSpaceOnUse">
<stop stop-color="white"/>
<stop offset="1" stop-color="#0284c7"/>
</linearGradient>
</defs>
</svg>
