<svg width="888" height="497" viewBox="0 0 888 497" fill="none" xmlns="http://www.w3.org/2000/svg">
<path d="M23.8497 299.296C23.5634 298.398 23.1785 297.594 22.6949 296.883C22.2212 296.163 21.6537 295.551 20.9924 295.048C20.3312 294.534 19.5762 294.145 18.7274 293.878C17.8885 293.612 16.9657 293.478 15.959 293.478C14.2516 293.478 12.7119 293.918 11.3401 294.796C9.9682 295.674 8.88256 296.962 8.08313 298.66C7.29357 300.348 6.89879 302.415 6.89879 304.863C6.89879 307.32 7.2985 309.398 8.09793 311.095C8.89736 312.793 9.99288 314.081 11.3845 314.959C12.7761 315.838 14.3601 316.277 16.1366 316.277C17.7849 316.277 19.2209 315.941 20.4447 315.27C21.6784 314.599 22.6308 313.652 23.3019 312.428C23.9829 311.194 24.3234 309.743 24.3234 308.075L25.5077 308.297H16.8324V304.522H28.7499V307.972C28.7499 310.518 28.2071 312.729 27.1214 314.604C26.0456 316.469 24.5553 317.91 22.6505 318.927C20.7556 319.943 18.5843 320.452 16.1366 320.452C13.3929 320.452 10.9848 319.82 8.91217 318.557C6.84944 317.294 5.24071 315.502 4.08598 313.183C2.93124 310.854 2.35388 308.09 2.35388 304.892C2.35388 302.474 2.68944 300.303 3.36057 298.379C4.03169 296.454 4.97423 294.821 6.18818 293.478C7.412 292.126 8.84801 291.095 10.4962 290.384C12.1543 289.664 13.9654 289.304 15.9294 289.304C17.5677 289.304 19.0926 289.545 20.5039 290.029C21.9251 290.513 23.1884 291.199 24.2938 292.087C25.409 292.975 26.3318 294.031 27.0622 295.255C27.7925 296.469 28.286 297.816 28.5426 299.296H23.8497ZM57.5484 320.037V289.718H62.123V316.099H75.8613V320.037H57.5484ZM129.228 304.878C129.228 308.115 128.635 310.898 127.451 313.227C126.267 315.547 124.643 317.333 122.58 318.586C120.528 319.83 118.193 320.452 115.578 320.452C112.953 320.452 110.609 319.83 108.546 318.586C106.493 317.333 104.875 315.542 103.69 313.212C102.506 310.883 101.914 308.105 101.914 304.878C101.914 301.64 102.506 298.862 103.69 296.543C104.875 294.214 106.493 292.427 108.546 291.184C110.609 289.93 112.953 289.304 115.578 289.304C118.193 289.304 120.528 289.93 122.58 291.184C124.643 292.427 126.267 294.214 127.451 296.543C128.635 298.862 129.228 301.64 129.228 304.878ZM124.697 304.878C124.697 302.41 124.298 300.333 123.498 298.645C122.709 296.948 121.623 295.664 120.241 294.796C118.87 293.918 117.315 293.478 115.578 293.478C113.831 293.478 112.272 293.918 110.9 294.796C109.528 295.664 108.442 296.948 107.643 298.645C106.853 300.333 106.459 302.41 106.459 304.878C106.459 307.345 106.853 309.428 107.643 311.125C108.442 312.813 109.528 314.096 110.9 314.974C112.272 315.843 113.831 316.277 115.578 316.277C117.315 316.277 118.87 315.843 120.241 314.974C121.623 314.096 122.709 312.813 123.498 311.125C124.298 309.428 124.697 307.345 124.697 304.878ZM157.923 320.037V289.718H169.026C171.177 289.718 172.959 290.073 174.37 290.784C175.781 291.485 176.837 292.437 177.538 293.641C178.239 294.835 178.589 296.183 178.589 297.683C178.589 298.946 178.357 300.012 177.893 300.881C177.43 301.739 176.808 302.43 176.028 302.953C175.258 303.466 174.41 303.841 173.482 304.078V304.374C174.488 304.424 175.47 304.749 176.428 305.351C177.395 305.944 178.194 306.787 178.826 307.883C179.458 308.978 179.774 310.311 179.774 311.88C179.774 313.43 179.408 314.821 178.678 316.055C177.958 317.279 176.842 318.251 175.332 318.971C173.822 319.682 171.893 320.037 169.544 320.037H157.923ZM162.497 316.114H169.1C171.291 316.114 172.86 315.69 173.807 314.841C174.755 313.992 175.229 312.931 175.229 311.658C175.229 310.701 174.987 309.822 174.503 309.023C174.02 308.223 173.329 307.587 172.431 307.113C171.542 306.639 170.486 306.403 169.263 306.403H162.497V316.114ZM162.497 302.835H168.626C169.652 302.835 170.575 302.637 171.394 302.243C172.223 301.848 172.88 301.295 173.363 300.584C173.857 299.864 174.104 299.015 174.104 298.038C174.104 296.785 173.664 295.734 172.786 294.885C171.908 294.036 170.56 293.612 168.744 293.612H162.497V302.835ZM210.752 320.037H205.896L216.807 289.718H222.092L233.003 320.037H228.147L219.575 295.225H219.339L210.752 320.037ZM211.566 308.164H227.318V312.013H211.566V308.164ZM260.373 320.037V289.718H264.947V316.099H278.686V320.037H260.373ZM357.457 297.683C357.299 296.281 356.647 295.196 355.503 294.426C354.358 293.646 352.917 293.256 351.18 293.256C349.936 293.256 348.86 293.454 347.952 293.848C347.044 294.233 346.339 294.766 345.835 295.447C345.342 296.118 345.095 296.883 345.095 297.742C345.095 298.462 345.263 299.084 345.598 299.607C345.944 300.13 346.393 300.57 346.946 300.925C347.508 301.27 348.11 301.562 348.752 301.798C349.393 302.025 350.01 302.213 350.602 302.361L353.563 303.131C354.53 303.368 355.522 303.688 356.539 304.093C357.555 304.498 358.498 305.031 359.366 305.692C360.235 306.353 360.936 307.172 361.469 308.149C362.011 309.126 362.283 310.296 362.283 311.658C362.283 313.375 361.839 314.9 360.95 316.233C360.072 317.565 358.794 318.616 357.116 319.386C355.448 320.156 353.43 320.541 351.061 320.541C348.791 320.541 346.827 320.18 345.169 319.46C343.511 318.739 342.213 317.718 341.276 316.395C340.338 315.063 339.82 313.484 339.721 311.658H344.31C344.399 312.754 344.755 313.666 345.376 314.397C346.008 315.117 346.812 315.655 347.789 316.01C348.776 316.356 349.857 316.529 351.032 316.529C352.325 316.529 353.474 316.326 354.481 315.922C355.498 315.507 356.297 314.935 356.879 314.204C357.462 313.464 357.753 312.601 357.753 311.614C357.753 310.715 357.496 309.98 356.983 309.408C356.48 308.835 355.794 308.362 354.925 307.987C354.066 307.612 353.094 307.281 352.009 306.995L348.426 306.018C345.998 305.356 344.074 304.384 342.652 303.101C341.241 301.818 340.535 300.121 340.535 298.008C340.535 296.262 341.009 294.737 341.957 293.434C342.904 292.131 344.187 291.12 345.806 290.399C347.424 289.669 349.25 289.304 351.283 289.304C353.336 289.304 355.147 289.664 356.716 290.384C358.296 291.105 359.539 292.097 360.447 293.36C361.355 294.613 361.829 296.054 361.868 297.683H357.457ZM410.238 289.718H414.827V309.659C414.827 311.781 414.329 313.662 413.332 315.3C412.335 316.928 410.934 318.211 409.128 319.149C407.322 320.077 405.205 320.541 402.777 320.541C400.359 320.541 398.247 320.077 396.441 319.149C394.634 318.211 393.233 316.928 392.236 315.3C391.239 313.662 390.741 311.781 390.741 309.659V289.718H395.315V309.289C395.315 310.661 395.616 311.88 396.219 312.946C396.83 314.012 397.694 314.851 398.809 315.463C399.925 316.065 401.247 316.366 402.777 316.366C404.316 316.366 405.644 316.065 406.759 315.463C407.884 314.851 408.743 314.012 409.335 312.946C409.937 311.88 410.238 310.661 410.238 309.289V289.718ZM444.47 289.718H450.022L459.674 313.286H460.029L469.682 289.718H475.233V320.037H470.881V298.097H470.599L461.658 319.993H458.045L449.104 298.083H448.822V320.037H444.47V289.718ZM504.876 289.718H510.427L520.08 313.286H520.435L530.087 289.718H535.639V320.037H531.286V298.097H531.005L522.063 319.993H518.451L509.509 298.083H509.228V320.037H504.876V289.718ZM569.856 289.718V320.037H565.281V289.718H569.856ZM598.014 293.656V289.718H621.479V293.656H612.019V320.037H607.459V293.656H598.014ZM683.266 320.037V316.721L693.525 306.092C694.62 304.937 695.523 303.925 696.234 303.057C696.955 302.178 697.492 301.344 697.848 300.555C698.203 299.765 698.381 298.926 698.381 298.038C698.381 297.031 698.144 296.163 697.67 295.433C697.196 294.692 696.55 294.125 695.731 293.73C694.912 293.325 693.989 293.123 692.962 293.123C691.877 293.123 690.929 293.345 690.12 293.789C689.311 294.233 688.689 294.86 688.255 295.669C687.82 296.479 687.603 297.426 687.603 298.512H683.236C683.236 296.666 683.66 295.053 684.509 293.671C685.358 292.289 686.522 291.218 688.003 290.458C689.483 289.688 691.166 289.304 693.051 289.304C694.956 289.304 696.634 289.684 698.085 290.444C699.545 291.194 700.685 292.22 701.504 293.523C702.324 294.816 702.733 296.276 702.733 297.905C702.733 299.03 702.521 300.13 702.097 301.206C701.682 302.282 700.957 303.481 699.92 304.804C698.884 306.116 697.443 307.71 695.598 309.585L689.572 315.892V316.114H703.222V320.037H683.266ZM742.38 320.541C740.04 320.531 738.042 319.914 736.384 318.69C734.726 317.466 733.457 315.685 732.579 313.346C731.701 311.007 731.262 308.189 731.262 304.892C731.262 301.606 731.701 298.798 732.579 296.469C733.467 294.14 734.741 292.363 736.399 291.139C738.067 289.915 740.06 289.304 742.38 289.304C744.699 289.304 746.688 289.92 748.346 291.154C750.004 292.378 751.272 294.154 752.15 296.484C753.039 298.803 753.483 301.606 753.483 304.892C753.483 308.199 753.044 311.021 752.165 313.361C751.287 315.69 750.019 317.471 748.36 318.705C746.702 319.929 744.709 320.541 742.38 320.541ZM742.38 316.588C744.432 316.588 746.036 315.586 747.191 313.583C748.356 311.579 748.938 308.682 748.938 304.892C748.938 302.376 748.671 300.249 748.138 298.512C747.615 296.765 746.86 295.442 745.873 294.544C744.896 293.636 743.732 293.182 742.38 293.182C740.337 293.182 738.733 294.189 737.568 296.202C736.404 298.216 735.816 301.112 735.806 304.892C735.806 307.419 736.068 309.556 736.591 311.303C737.124 313.04 737.879 314.357 738.856 315.255C739.833 316.144 741.008 316.588 742.38 316.588ZM781.726 320.037V316.721L791.985 306.092C793.081 304.937 793.984 303.925 794.695 303.057C795.415 302.178 795.953 301.344 796.308 300.555C796.664 299.765 796.841 298.926 796.841 298.038C796.841 297.031 796.604 296.163 796.131 295.433C795.657 294.692 795.01 294.125 794.191 293.73C793.372 293.325 792.449 293.123 791.423 293.123C790.337 293.123 789.39 293.345 788.581 293.789C787.771 294.233 787.149 294.86 786.715 295.669C786.281 296.479 786.064 297.426 786.064 298.512H781.697C781.697 296.666 782.121 295.053 782.97 293.671C783.818 292.289 784.983 291.218 786.463 290.458C787.944 289.688 789.627 289.304 791.512 289.304C793.417 289.304 795.094 289.684 796.545 290.444C798.006 291.194 799.146 292.22 799.965 293.523C800.784 294.816 801.194 296.276 801.194 297.905C801.194 299.03 800.982 300.13 800.557 301.206C800.143 302.282 799.417 303.481 798.381 304.804C797.345 306.116 795.904 307.71 794.058 309.585L788.033 315.892V316.114H801.682V320.037H781.726ZM840.87 320.452C839.518 320.432 838.185 320.185 836.873 319.712C835.57 319.238 834.386 318.448 833.32 317.343C832.254 316.237 831.4 314.752 830.758 312.887C830.127 311.021 829.811 308.692 829.811 305.899C829.811 303.254 830.073 300.905 830.596 298.852C831.129 296.799 831.893 295.067 832.89 293.656C833.887 292.235 835.091 291.154 836.503 290.414C837.914 289.674 839.498 289.304 841.255 289.304C843.061 289.304 844.665 289.659 846.066 290.369C847.468 291.08 848.603 292.062 849.471 293.316C850.349 294.569 850.907 295.995 851.144 297.594H846.629C846.323 296.331 845.716 295.299 844.808 294.5C843.9 293.7 842.715 293.301 841.255 293.301C839.034 293.301 837.302 294.268 836.058 296.202C834.825 298.137 834.203 300.826 834.193 304.271H834.415C834.938 303.412 835.58 302.682 836.34 302.08C837.109 301.468 837.968 300.999 838.916 300.673C839.873 300.338 840.88 300.17 841.936 300.17C843.692 300.17 845.281 300.599 846.703 301.458C848.134 302.307 849.274 303.481 850.122 304.981C850.971 306.481 851.396 308.199 851.396 310.133C851.396 312.068 850.956 313.819 850.078 315.389C849.21 316.958 847.986 318.202 846.407 319.119C844.827 320.027 842.982 320.471 840.87 320.452ZM840.855 316.603C842.02 316.603 843.061 316.316 843.979 315.744C844.897 315.172 845.622 314.402 846.155 313.435C846.688 312.467 846.954 311.387 846.954 310.192C846.954 309.028 846.693 307.967 846.17 307.009C845.656 306.052 844.946 305.292 844.038 304.73C843.14 304.167 842.113 303.886 840.959 303.886C840.08 303.886 839.266 304.054 838.516 304.389C837.776 304.725 837.124 305.189 836.562 305.781C835.999 306.373 835.555 307.054 835.229 307.824C834.914 308.584 834.756 309.388 834.756 310.237C834.756 311.372 835.017 312.423 835.54 313.39C836.073 314.357 836.799 315.137 837.716 315.729C838.644 316.311 839.69 316.603 840.855 316.603Z" fill="black"/>
<path d="M107.693 22.5392H160.94V177.041C160.867 191.517 157.412 204.174 150.574 215.012C143.737 225.778 134.28 234.143 122.205 240.108C110.203 246.073 96.3093 249.055 80.5245 249.055C66.5582 249.055 53.8648 246.618 42.4445 241.745C31.0968 236.871 22.0406 229.306 15.2756 219.049C8.58346 208.793 5.27373 195.663 5.34647 179.66H59.1386C59.3568 185.407 60.4479 190.317 62.4119 194.39C64.4487 198.391 67.2492 201.41 70.8135 203.446C74.3778 205.483 78.6332 206.502 83.5796 206.502C88.7442 206.502 93.1087 205.41 96.673 203.228C100.237 200.973 102.929 197.664 104.747 193.299C106.639 188.935 107.621 183.515 107.693 177.041V22.5392ZM183.717 22.5392H244.056L291.301 116.048H293.265L340.51 22.5392H400.849L319.125 171.368V246H265.442V171.368L183.717 22.5392ZM613.672 22.5392V246H567.845L478.919 117.03H477.5V246H423.49V22.5392H469.971L557.916 151.291H559.77V22.5392H613.672ZM702.298 22.5392L743.105 93.1345H744.851L786.095 22.5392H846.543L779.112 134.27L848.726 246H786.75L744.851 174.641H743.105L701.207 246H639.667L708.953 134.27L641.413 22.5392H702.298Z" fill="black"/>
<path d="M39.6025 380.994H30.9228C30.7643 379.871 30.4406 378.873 29.9518 378.001C29.463 377.116 28.8354 376.363 28.0692 375.742C27.3029 375.121 26.4178 374.646 25.4138 374.315C24.4229 373.985 23.3462 373.82 22.1836 373.82C20.0831 373.82 18.2533 374.342 16.6944 375.386C15.1355 376.416 13.9267 377.922 13.0679 379.904C12.2092 381.872 11.7798 384.263 11.7798 387.077C11.7798 389.971 12.2092 392.402 13.0679 394.37C13.9399 396.338 15.1553 397.825 16.7142 398.829C18.2731 399.833 20.0764 400.335 22.1242 400.335C23.2735 400.335 24.337 400.183 25.3147 399.879C26.3055 399.575 27.184 399.133 27.9503 398.551C28.7165 397.957 29.3507 397.237 29.8527 396.391C30.3679 395.546 30.7246 394.581 30.9228 393.498L39.6025 393.538C39.3779 395.4 38.8165 397.197 37.9181 398.928C37.033 400.645 35.8374 402.184 34.3313 403.545C32.8384 404.893 31.0549 405.963 28.9808 406.755C26.9198 407.535 24.5881 407.925 21.9855 407.925C18.3656 407.925 15.1289 407.106 12.2753 405.467C9.43487 403.829 7.18897 401.458 5.53758 398.353C3.89939 395.249 3.0803 391.49 3.0803 387.077C3.0803 382.652 3.9126 378.887 5.57721 375.782C7.24182 372.677 9.50092 370.312 12.3545 368.687C15.2081 367.049 18.4185 366.23 21.9855 366.23C24.337 366.23 26.5169 366.561 28.525 367.221C30.5463 367.882 32.3364 368.846 33.8953 370.114C35.4542 371.369 36.7225 372.908 37.7001 374.732C38.691 376.555 39.3251 378.642 39.6025 380.994ZM59.3499 407.964C56.2717 407.964 53.6097 407.31 51.3638 406.002C49.1311 404.681 47.407 402.845 46.1916 400.493C44.9762 398.129 44.3685 395.387 44.3685 392.269C44.3685 389.125 44.9762 386.377 46.1916 384.026C47.407 381.661 49.1311 379.824 51.3638 378.517C53.6097 377.195 56.2717 376.535 59.3499 376.535C62.4281 376.535 65.0835 377.195 67.3162 378.517C69.5621 379.824 71.2928 381.661 72.5082 384.026C73.7236 386.377 74.3313 389.125 74.3313 392.269C74.3313 395.387 73.7236 398.129 72.5082 400.493C71.2928 402.845 69.5621 404.681 67.3162 406.002C65.0835 407.31 62.4281 407.964 59.3499 407.964ZM59.3895 401.425C60.7899 401.425 61.9591 401.028 62.8971 400.236C63.8351 399.43 64.5419 398.333 65.0175 396.946C65.5063 395.559 65.7507 393.98 65.7507 392.21C65.7507 390.44 65.5063 388.861 65.0175 387.474C64.5419 386.087 63.8351 384.99 62.8971 384.184C61.9591 383.378 60.7899 382.975 59.3895 382.975C57.9759 382.975 56.7869 383.378 55.8225 384.184C54.8713 384.99 54.1513 386.087 53.6625 387.474C53.1869 388.861 52.9491 390.44 52.9491 392.21C52.9491 393.98 53.1869 395.559 53.6625 396.946C54.1513 398.333 54.8713 399.43 55.8225 400.236C56.7869 401.028 57.9759 401.425 59.3895 401.425ZM88.2625 389.772V407.37H79.8206V376.931H87.8662V382.302H88.2229C88.8966 380.531 90.0262 379.131 91.6115 378.1C93.1969 377.057 95.1191 376.535 97.3782 376.535C99.492 376.535 101.335 376.997 102.907 377.922C104.479 378.847 105.701 380.168 106.573 381.885C107.445 383.59 107.881 385.624 107.881 387.989V407.37H99.4391V389.495C99.4524 387.632 98.9768 386.179 98.0123 385.135C97.0479 384.078 95.7202 383.55 94.0292 383.55C92.893 383.55 91.889 383.794 91.017 384.283C90.1583 384.772 89.4845 385.485 88.9957 386.423C88.5201 387.348 88.2757 388.465 88.2625 389.772ZM122.976 389.772V407.37H114.535V376.931H122.58V382.302H122.937C123.611 380.531 124.74 379.131 126.325 378.1C127.911 377.057 129.833 376.535 132.092 376.535C134.206 376.535 136.049 376.997 137.621 377.922C139.193 378.847 140.415 380.168 141.287 381.885C142.159 383.59 142.595 385.624 142.595 387.989V407.37H134.153V389.495C134.166 387.632 133.691 386.179 132.726 385.135C131.762 384.078 130.434 383.55 128.743 383.55C127.607 383.55 126.603 383.794 125.731 384.283C124.872 384.772 124.198 385.485 123.71 386.423C123.234 387.348 122.99 388.465 122.976 389.772ZM163.12 407.964C159.989 407.964 157.294 407.33 155.035 406.062C152.789 404.78 151.058 402.97 149.843 400.632C148.628 398.28 148.02 395.5 148.02 392.289C148.02 389.158 148.628 386.41 149.843 384.045C151.058 381.681 152.769 379.838 154.976 378.517C157.195 377.195 159.798 376.535 162.783 376.535C164.791 376.535 166.661 376.859 168.391 377.506C170.135 378.14 171.655 379.098 172.949 380.379C174.257 381.661 175.274 383.273 176.001 385.215C176.728 387.143 177.091 389.403 177.091 391.992V394.311H151.389V389.079H169.144C169.144 387.863 168.88 386.787 168.352 385.849C167.823 384.911 167.09 384.178 166.152 383.649C165.227 383.107 164.151 382.837 162.922 382.837C161.641 382.837 160.504 383.134 159.514 383.728C158.536 384.31 157.77 385.096 157.215 386.087C156.66 387.064 156.376 388.154 156.363 389.356V394.33C156.363 395.836 156.64 397.138 157.195 398.234C157.763 399.331 158.562 400.176 159.593 400.771C160.623 401.365 161.845 401.663 163.259 401.663C164.197 401.663 165.056 401.53 165.835 401.266C166.615 401.002 167.282 400.606 167.837 400.077C168.391 399.549 168.814 398.901 169.105 398.135L176.913 398.65C176.516 400.526 175.704 402.165 174.475 403.565C173.26 404.952 171.688 406.035 169.759 406.815C167.843 407.581 165.63 407.964 163.12 407.964ZM196.353 407.964C193.235 407.964 190.553 407.304 188.307 405.983C186.075 404.648 184.357 402.799 183.155 400.434C181.966 398.069 181.371 395.348 181.371 392.269C181.371 389.152 181.973 386.417 183.175 384.065C184.39 381.7 186.114 379.858 188.347 378.536C190.58 377.202 193.235 376.535 196.313 376.535C198.969 376.535 201.294 377.017 203.289 377.982C205.284 378.946 206.862 380.3 208.025 382.044C209.187 383.788 209.828 385.836 209.947 388.187H201.981C201.756 386.668 201.162 385.446 200.197 384.521C199.246 383.583 197.998 383.114 196.452 383.114C195.144 383.114 194.001 383.471 193.024 384.184C192.059 384.884 191.306 385.908 190.765 387.256C190.223 388.603 189.952 390.235 189.952 392.151C189.952 394.093 190.216 395.744 190.745 397.105C191.286 398.465 192.046 399.503 193.024 400.216C194.001 400.929 195.144 401.286 196.452 401.286C197.416 401.286 198.282 401.088 199.048 400.692C199.827 400.295 200.468 399.72 200.97 398.967C201.485 398.201 201.822 397.283 201.981 396.213H209.947C209.815 398.538 209.181 400.586 208.045 402.356C206.922 404.113 205.369 405.487 203.388 406.478C201.406 407.469 199.061 407.964 196.353 407.964ZM231.542 376.931V383.273H213.212V376.931H231.542ZM217.373 369.639H225.815V398.016C225.815 398.796 225.934 399.403 226.172 399.839C226.41 400.262 226.74 400.559 227.163 400.731C227.599 400.903 228.101 400.989 228.669 400.989C229.065 400.989 229.462 400.956 229.858 400.89C230.254 400.81 230.558 400.751 230.77 400.711L232.097 406.993C231.675 407.125 231.08 407.277 230.314 407.449C229.548 407.634 228.616 407.746 227.52 407.786C225.485 407.865 223.702 407.594 222.169 406.973C220.65 406.352 219.467 405.388 218.622 404.08C217.776 402.772 217.36 401.121 217.373 399.126V369.639ZM237.042 407.37V376.931H245.483V407.37H237.042ZM241.282 373.008C240.027 373.008 238.951 372.591 238.052 371.759C237.167 370.914 236.724 369.903 236.724 368.727C236.724 367.565 237.167 366.567 238.052 365.735C238.951 364.889 240.027 364.467 241.282 364.467C242.537 364.467 243.607 364.889 244.493 365.735C245.391 366.567 245.84 367.565 245.84 368.727C245.84 369.903 245.391 370.914 244.493 371.759C243.607 372.591 242.537 373.008 241.282 373.008ZM260.688 389.772V407.37H252.246V376.931H260.292V382.302H260.648C261.322 380.531 262.452 379.131 264.037 378.1C265.622 377.057 267.544 376.535 269.804 376.535C271.917 376.535 273.76 376.997 275.332 377.922C276.905 378.847 278.127 380.168 278.999 381.885C279.87 383.59 280.306 385.624 280.306 387.989V407.37H271.864V389.495C271.878 387.632 271.402 386.179 270.438 385.135C269.473 384.078 268.146 383.55 266.455 383.55C265.318 383.55 264.314 383.794 263.442 384.283C262.584 384.772 261.91 385.485 261.421 386.423C260.945 387.348 260.701 388.465 260.688 389.772ZM300.673 419.418C297.938 419.418 295.593 419.042 293.638 418.289C291.696 417.549 290.15 416.538 289.001 415.257C287.852 413.975 287.105 412.535 286.762 410.937L294.57 409.886C294.807 410.494 295.184 411.062 295.699 411.591C296.214 412.119 296.895 412.542 297.74 412.859C298.599 413.189 299.643 413.354 300.871 413.354C302.708 413.354 304.22 412.905 305.409 412.007C306.611 411.122 307.213 409.635 307.213 407.548V401.98H306.856C306.486 402.825 305.931 403.624 305.191 404.377C304.451 405.13 303.5 405.745 302.338 406.22C301.175 406.696 299.788 406.934 298.176 406.934C295.891 406.934 293.81 406.405 291.934 405.348C290.071 404.278 288.585 402.647 287.475 400.454C286.379 398.247 285.83 395.46 285.83 392.091C285.83 388.643 286.392 385.763 287.515 383.451C288.638 381.139 290.131 379.408 291.993 378.259C293.869 377.11 295.924 376.535 298.156 376.535C299.861 376.535 301.287 376.826 302.437 377.407C303.586 377.975 304.511 378.688 305.211 379.547C305.924 380.393 306.473 381.225 306.856 382.044H307.173V376.931H315.555V407.667C315.555 410.256 314.921 412.423 313.653 414.167C312.385 415.911 310.628 417.219 308.382 418.091C306.149 418.976 303.58 419.418 300.673 419.418ZM300.851 400.592C302.212 400.592 303.362 400.256 304.3 399.582C305.251 398.895 305.977 397.917 306.479 396.649C306.995 395.367 307.252 393.835 307.252 392.051C307.252 390.268 307.001 388.722 306.499 387.414C305.997 386.093 305.271 385.069 304.319 384.343C303.368 383.616 302.212 383.253 300.851 383.253C299.464 383.253 298.295 383.629 297.344 384.382C296.393 385.122 295.673 386.153 295.184 387.474C294.695 388.795 294.451 390.321 294.451 392.051C294.451 393.809 294.695 395.328 295.184 396.609C295.686 397.878 296.406 398.862 297.344 399.562C298.295 400.249 299.464 400.592 300.851 400.592ZM343.631 366.785V407.37H335.189V366.785H343.631ZM364.265 407.964C361.134 407.964 358.439 407.33 356.18 406.062C353.934 404.78 352.203 402.97 350.988 400.632C349.772 398.28 349.165 395.5 349.165 392.289C349.165 389.158 349.772 386.41 350.988 384.045C352.203 381.681 353.914 379.838 356.12 378.517C358.34 377.195 360.942 376.535 363.928 376.535C365.936 376.535 367.806 376.859 369.536 377.506C371.28 378.14 372.799 379.098 374.094 380.379C375.402 381.661 376.419 383.273 377.146 385.215C377.872 387.143 378.236 389.403 378.236 391.992V394.311H352.533V389.079H370.289C370.289 387.863 370.025 386.787 369.497 385.849C368.968 384.911 368.235 384.178 367.297 383.649C366.372 383.107 365.295 382.837 364.067 382.837C362.785 382.837 361.649 383.134 360.658 383.728C359.681 384.31 358.914 385.096 358.36 386.087C357.805 387.064 357.521 388.154 357.507 389.356V394.33C357.507 395.836 357.785 397.138 358.34 398.234C358.908 399.331 359.707 400.176 360.738 400.771C361.768 401.365 362.99 401.663 364.404 401.663C365.342 401.663 366.2 401.53 366.98 401.266C367.759 401.002 368.426 400.606 368.981 400.077C369.536 399.549 369.959 398.901 370.25 398.135L378.057 398.65C377.661 400.526 376.849 402.165 375.62 403.565C374.404 404.952 372.832 406.035 370.904 406.815C368.988 407.581 366.775 407.964 364.265 407.964ZM392.424 407.944C390.482 407.944 388.752 407.608 387.233 406.934C385.713 406.247 384.511 405.236 383.626 403.902C382.754 402.554 382.318 400.876 382.318 398.868C382.318 397.177 382.628 395.757 383.249 394.608C383.87 393.458 384.716 392.534 385.786 391.833C386.856 391.133 388.071 390.605 389.432 390.248C390.806 389.891 392.246 389.64 393.752 389.495C395.523 389.31 396.949 389.138 398.033 388.98C399.116 388.808 399.902 388.557 400.391 388.227C400.88 387.897 401.124 387.408 401.124 386.76V386.641C401.124 385.386 400.728 384.415 399.935 383.728C399.156 383.041 398.046 382.698 396.606 382.698C395.087 382.698 393.878 383.035 392.979 383.709C392.081 384.369 391.486 385.201 391.196 386.205L383.388 385.571C383.784 383.722 384.564 382.123 385.726 380.776C386.889 379.415 388.388 378.371 390.225 377.645C392.074 376.905 394.215 376.535 396.645 376.535C398.336 376.535 399.955 376.733 401.501 377.129C403.059 377.526 404.44 378.14 405.642 378.972C406.858 379.805 407.815 380.875 408.516 382.183C409.216 383.477 409.566 385.03 409.566 386.84V407.37H401.56V403.149H401.322C400.833 404.1 400.179 404.939 399.36 405.666C398.541 406.379 397.557 406.94 396.408 407.35C395.258 407.746 393.931 407.944 392.424 407.944ZM394.842 402.118C396.084 402.118 397.181 401.874 398.132 401.385C399.083 400.883 399.829 400.209 400.371 399.364C400.913 398.518 401.183 397.56 401.183 396.49V393.26C400.919 393.432 400.556 393.591 400.094 393.736C399.644 393.868 399.136 393.993 398.568 394.112C398 394.218 397.432 394.317 396.863 394.41C396.295 394.489 395.78 394.562 395.318 394.628C394.327 394.773 393.462 395.004 392.722 395.321C391.982 395.638 391.407 396.068 390.998 396.609C390.588 397.138 390.383 397.798 390.383 398.591C390.383 399.74 390.8 400.619 391.632 401.227C392.477 401.821 393.547 402.118 394.842 402.118ZM427.332 407.865C425.02 407.865 422.926 407.271 421.05 406.082C419.187 404.879 417.707 403.116 416.611 400.791C415.527 398.452 414.986 395.585 414.986 392.19C414.986 388.702 415.547 385.803 416.67 383.491C417.793 381.165 419.286 379.428 421.149 378.279C423.025 377.116 425.079 376.535 427.312 376.535C429.016 376.535 430.436 376.826 431.572 377.407C432.722 377.975 433.647 378.688 434.347 379.547C435.06 380.393 435.602 381.225 435.972 382.044H436.229V366.785H444.651V407.37H436.328V402.495H435.972C435.575 403.34 435.014 404.179 434.287 405.012C433.574 405.831 432.643 406.511 431.493 407.053C430.357 407.594 428.97 407.865 427.332 407.865ZM430.007 401.147C431.368 401.147 432.517 400.777 433.455 400.038C434.406 399.285 435.133 398.234 435.635 396.887C436.15 395.539 436.408 393.96 436.408 392.151C436.408 390.341 436.157 388.768 435.655 387.434C435.153 386.1 434.426 385.069 433.475 384.343C432.524 383.616 431.368 383.253 430.007 383.253C428.62 383.253 427.451 383.629 426.499 384.382C425.548 385.135 424.828 386.179 424.339 387.513C423.851 388.848 423.606 390.393 423.606 392.151C423.606 393.921 423.851 395.486 424.339 396.847C424.841 398.195 425.561 399.251 426.499 400.018C427.451 400.771 428.62 401.147 430.007 401.147ZM465.464 407.964C462.333 407.964 459.638 407.33 457.379 406.062C455.133 404.78 453.402 402.97 452.187 400.632C450.971 398.28 450.364 395.5 450.364 392.289C450.364 389.158 450.971 386.41 452.187 384.045C453.402 381.681 455.113 379.838 457.319 378.517C459.539 377.195 462.141 376.535 465.127 376.535C467.135 376.535 469.005 376.859 470.735 377.506C472.479 378.14 473.998 379.098 475.293 380.379C476.601 381.661 477.618 383.273 478.345 385.215C479.071 387.143 479.435 389.403 479.435 391.992V394.311H453.733V389.079H471.488C471.488 387.863 471.224 386.787 470.696 385.849C470.167 384.911 469.434 384.178 468.496 383.649C467.571 383.107 466.494 382.837 465.266 382.837C463.984 382.837 462.848 383.134 461.857 383.728C460.88 384.31 460.113 385.096 459.559 386.087C459.004 387.064 458.72 388.154 458.706 389.356V394.33C458.706 395.836 458.984 397.138 459.539 398.234C460.107 399.331 460.906 400.176 461.937 400.771C462.967 401.365 464.189 401.663 465.603 401.663C466.541 401.663 467.399 401.53 468.179 401.266C468.958 401.002 469.626 400.606 470.18 400.077C470.735 399.549 471.158 398.901 471.449 398.135L479.256 398.65C478.86 400.526 478.048 402.165 476.819 403.565C475.604 404.952 474.031 406.035 472.103 406.815C470.187 407.581 467.974 407.964 465.464 407.964ZM484.944 407.37V376.931H493.128V382.242H493.445C494 380.353 494.931 378.926 496.239 377.962C497.547 376.984 499.053 376.495 500.758 376.495C501.18 376.495 501.636 376.522 502.125 376.575C502.614 376.627 503.043 376.7 503.413 376.793V384.283C503.017 384.164 502.468 384.059 501.768 383.966C501.068 383.874 500.427 383.827 499.846 383.827C498.604 383.827 497.494 384.098 496.517 384.64C495.552 385.168 494.786 385.908 494.218 386.859C493.663 387.811 493.386 388.907 493.386 390.149V407.37H484.944ZM533.103 385.611L525.375 386.087C525.243 385.426 524.959 384.832 524.523 384.303C524.087 383.761 523.512 383.332 522.799 383.015C522.099 382.685 521.26 382.52 520.282 382.52C518.974 382.52 517.871 382.797 516.973 383.352C516.074 383.894 515.625 384.62 515.625 385.532C515.625 386.258 515.916 386.873 516.497 387.375C517.078 387.877 518.076 388.28 519.489 388.583L524.998 389.693C527.958 390.301 530.164 391.279 531.617 392.626C533.07 393.974 533.797 395.744 533.797 397.937C533.797 399.932 533.209 401.682 532.033 403.188C530.871 404.694 529.272 405.87 527.238 406.716C525.216 407.548 522.885 407.964 520.242 407.964C516.213 407.964 513.003 407.125 510.611 405.448C508.233 403.757 506.84 401.458 506.43 398.551L514.733 398.115C514.984 399.344 515.592 400.282 516.556 400.929C517.521 401.563 518.756 401.881 520.262 401.881C521.742 401.881 522.931 401.596 523.829 401.028C524.741 400.447 525.203 399.701 525.216 398.789C525.203 398.023 524.879 397.395 524.245 396.907C523.611 396.404 522.634 396.021 521.312 395.757L516.041 394.707C513.069 394.112 510.856 393.082 509.403 391.615C507.963 390.149 507.243 388.28 507.243 386.007C507.243 384.052 507.771 382.368 508.828 380.954C509.898 379.54 511.398 378.451 513.326 377.684C515.268 376.918 517.541 376.535 520.143 376.535C523.988 376.535 527.013 377.347 529.219 378.972C531.439 380.597 532.734 382.81 533.103 385.611ZM576.561 387.355V394.053H548.66V387.355H576.561ZM593.004 407.37V366.785H601.446V382.044H601.704C602.074 381.225 602.609 380.393 603.309 379.547C604.023 378.688 604.947 377.975 606.083 377.407C607.233 376.826 608.66 376.535 610.364 376.535C612.583 376.535 614.631 377.116 616.507 378.279C618.383 379.428 619.883 381.165 621.005 383.491C622.128 385.803 622.69 388.702 622.69 392.19C622.69 395.585 622.142 398.452 621.045 400.791C619.962 403.116 618.482 404.879 616.606 406.082C614.743 407.271 612.656 407.865 610.344 407.865C608.706 407.865 607.312 407.594 606.163 407.053C605.027 406.511 604.095 405.831 603.369 405.012C602.642 404.179 602.087 403.34 601.704 402.495H601.327V407.37H593.004ZM601.268 392.151C601.268 393.96 601.519 395.539 602.021 396.887C602.523 398.234 603.25 399.285 604.201 400.038C605.152 400.777 606.308 401.147 607.669 401.147C609.043 401.147 610.205 400.771 611.157 400.018C612.108 399.251 612.828 398.195 613.317 396.847C613.819 395.486 614.07 393.921 614.07 392.151C614.07 390.393 613.825 388.848 613.336 387.513C612.848 386.179 612.128 385.135 611.176 384.382C610.225 383.629 609.056 383.253 607.669 383.253C606.295 383.253 605.132 383.616 604.181 384.343C603.243 385.069 602.523 386.1 602.021 387.434C601.519 388.768 601.268 390.341 601.268 392.151ZM647.842 394.41V376.931H656.284V407.37H648.179V401.841H647.862C647.175 403.624 646.032 405.058 644.434 406.141C642.848 407.224 640.913 407.766 638.628 407.766C636.593 407.766 634.803 407.304 633.257 406.379C631.711 405.454 630.503 404.14 629.631 402.435C628.772 400.731 628.336 398.69 628.323 396.312V376.931H636.765V394.806C636.778 396.603 637.26 398.023 638.211 399.067C639.163 400.11 640.437 400.632 642.036 400.632C643.053 400.632 644.004 400.401 644.89 399.938C645.775 399.463 646.488 398.763 647.03 397.838C647.585 396.913 647.856 395.77 647.842 394.41ZM663.037 407.37V376.931H671.479V407.37H663.037ZM667.278 373.008C666.023 373.008 664.946 372.591 664.047 371.759C663.162 370.914 662.72 369.903 662.72 368.727C662.72 367.565 663.162 366.567 664.047 365.735C664.946 364.889 666.023 364.467 667.278 364.467C668.533 364.467 669.603 364.889 670.488 365.735C671.386 366.567 671.835 367.565 671.835 368.727C671.835 369.903 671.386 370.914 670.488 371.759C669.603 372.591 668.533 373.008 667.278 373.008ZM686.683 366.785V407.37H678.241V366.785H686.683ZM709.636 376.931V383.273H691.305V376.931H709.636ZM695.467 369.639H703.909V398.016C703.909 398.796 704.028 399.403 704.265 399.839C704.503 400.262 704.834 400.559 705.256 400.731C705.692 400.903 706.194 400.989 706.762 400.989C707.159 400.989 707.555 400.956 707.951 400.89C708.348 400.81 708.652 400.751 708.863 400.711L710.191 406.993C709.768 407.125 709.173 407.277 708.407 407.449C707.641 407.634 706.71 407.746 705.613 407.786C703.578 407.865 701.795 407.594 700.262 406.973C698.743 406.352 697.561 405.388 696.715 404.08C695.87 402.772 695.454 401.121 695.467 399.126V369.639ZM728.209 407.37V366.785H736.651V382.044H736.909C737.278 381.225 737.814 380.393 738.514 379.547C739.227 378.688 740.152 377.975 741.288 377.407C742.437 376.826 743.864 376.535 745.568 376.535C747.788 376.535 749.836 377.116 751.712 378.279C753.588 379.428 755.087 381.165 756.21 383.491C757.333 385.803 757.894 388.702 757.894 392.19C757.894 395.585 757.346 398.452 756.25 400.791C755.166 403.116 753.687 404.879 751.811 406.082C749.948 407.271 747.861 407.865 745.549 407.865C743.91 407.865 742.517 407.594 741.367 407.053C740.231 406.511 739.3 405.831 738.573 405.012C737.847 404.179 737.292 403.34 736.909 402.495H736.532V407.37H728.209ZM736.473 392.151C736.473 393.96 736.724 395.539 737.226 396.887C737.728 398.234 738.454 399.285 739.405 400.038C740.357 400.777 741.513 401.147 742.873 401.147C744.247 401.147 745.41 400.771 746.361 400.018C747.312 399.251 748.032 398.195 748.521 396.847C749.023 395.486 749.274 393.921 749.274 392.151C749.274 390.393 749.03 388.848 748.541 387.513C748.052 386.179 747.332 385.135 746.381 384.382C745.43 383.629 744.261 383.253 742.873 383.253C741.499 383.253 740.337 383.616 739.386 384.343C738.448 385.069 737.728 386.1 737.226 387.434C736.724 388.768 736.473 390.341 736.473 392.151ZM767.758 418.784C766.688 418.784 765.684 418.698 764.746 418.527C763.821 418.368 763.055 418.163 762.447 417.912L764.35 411.611C765.341 411.914 766.232 412.08 767.025 412.106C767.831 412.132 768.525 411.947 769.106 411.551C769.7 411.155 770.183 410.481 770.552 409.53L771.048 408.242L760.129 376.931H769.007L775.308 399.285H775.625L781.987 376.931H790.924L779.093 410.659C778.525 412.298 777.752 413.724 776.775 414.94C775.81 416.168 774.588 417.113 773.109 417.774C771.629 418.447 769.846 418.784 767.758 418.784ZM827.679 394.41V376.931H836.121V407.37H828.016V401.841H827.699C827.012 403.624 825.869 405.058 824.271 406.141C822.685 407.224 820.75 407.766 818.464 407.766C816.43 407.766 814.64 407.304 813.094 406.379C811.548 405.454 810.339 404.14 809.468 402.435C808.609 400.731 808.173 398.69 808.16 396.312V376.931H816.602V394.806C816.615 396.603 817.097 398.023 818.048 399.067C818.999 400.11 820.274 400.632 821.873 400.632C822.89 400.632 823.841 400.401 824.726 399.938C825.612 399.463 826.325 398.763 826.867 397.838C827.421 396.913 827.692 395.77 827.679 394.41ZM868.199 385.611L860.471 386.087C860.339 385.426 860.055 384.832 859.619 384.303C859.183 383.761 858.608 383.332 857.895 383.015C857.194 382.685 856.356 382.52 855.378 382.52C854.07 382.52 852.967 382.797 852.069 383.352C851.17 383.894 850.721 384.62 850.721 385.532C850.721 386.258 851.012 386.873 851.593 387.375C852.174 387.877 853.172 388.28 854.585 388.583L860.094 389.693C863.054 390.301 865.26 391.279 866.713 392.626C868.166 393.974 868.893 395.744 868.893 397.937C868.893 399.932 868.305 401.682 867.129 403.188C865.967 404.694 864.368 405.87 862.334 406.716C860.312 407.548 857.981 407.964 855.338 407.964C851.309 407.964 848.099 407.125 845.707 405.448C843.329 403.757 841.936 401.458 841.526 398.551L849.829 398.115C850.08 399.344 850.688 400.282 851.652 400.929C852.617 401.563 853.852 401.881 855.358 401.881C856.838 401.881 858.027 401.596 858.925 401.028C859.837 400.447 860.299 399.701 860.312 398.789C860.299 398.023 859.975 397.395 859.341 396.907C858.707 396.404 857.73 396.021 856.408 395.757L851.137 394.707C848.165 394.112 845.952 393.082 844.499 391.615C843.059 390.149 842.339 388.28 842.339 386.007C842.339 384.052 842.867 382.368 843.924 380.954C844.994 379.54 846.493 378.451 848.422 377.684C850.364 376.918 852.637 376.535 855.239 376.535C859.084 376.535 862.109 377.347 864.315 378.972C866.535 380.597 867.829 382.81 868.199 385.611ZM883.384 401.821L883.166 404.001C882.994 405.745 882.664 407.482 882.175 409.213C881.7 410.957 881.198 412.535 880.669 413.949C880.154 415.362 879.738 416.472 879.421 417.278H873.951C874.149 416.499 874.42 415.409 874.764 414.008C875.107 412.621 875.431 411.062 875.735 409.332C876.039 407.601 876.23 405.837 876.309 404.041L876.408 401.821H883.384ZM253.569 480.944C251.627 480.944 249.896 480.608 248.377 479.934C246.857 479.247 245.655 478.236 244.77 476.902C243.898 475.554 243.462 473.876 243.462 471.868C243.462 470.177 243.773 468.757 244.394 467.608C245.014 466.458 245.86 465.534 246.93 464.833C248 464.133 249.216 463.605 250.576 463.248C251.95 462.891 253.39 462.64 254.896 462.495C256.667 462.31 258.094 462.138 259.177 461.98C260.26 461.808 261.046 461.557 261.535 461.227C262.024 460.897 262.268 460.408 262.268 459.76V459.641C262.268 458.386 261.872 457.415 261.079 456.728C260.3 456.041 259.19 455.698 257.75 455.698C256.231 455.698 255.022 456.035 254.124 456.709C253.225 457.369 252.631 458.201 252.34 459.205L244.532 458.571C244.929 456.722 245.708 455.123 246.871 453.776C248.033 452.415 249.533 451.371 251.369 450.645C253.219 449.905 255.359 449.535 257.79 449.535C259.481 449.535 261.099 449.733 262.645 450.129C264.204 450.526 265.584 451.14 266.786 451.972C268.002 452.805 268.96 453.875 269.66 455.183C270.36 456.477 270.71 458.03 270.71 459.84V480.37H262.704V476.149H262.466C261.978 477.1 261.324 477.939 260.505 478.666C259.685 479.379 258.701 479.94 257.552 480.35C256.402 480.746 255.075 480.944 253.569 480.944ZM255.986 475.118C257.228 475.118 258.325 474.874 259.276 474.385C260.227 473.883 260.974 473.209 261.515 472.364C262.057 471.518 262.328 470.56 262.328 469.49V466.26C262.063 466.432 261.7 466.591 261.238 466.736C260.789 466.868 260.28 466.993 259.712 467.112C259.144 467.218 258.576 467.317 258.008 467.41C257.44 467.489 256.924 467.562 256.462 467.628C255.471 467.773 254.606 468.004 253.866 468.321C253.126 468.638 252.551 469.068 252.142 469.609C251.732 470.138 251.528 470.798 251.528 471.591C251.528 472.74 251.944 473.619 252.776 474.227C253.622 474.821 254.692 475.118 255.986 475.118ZM277.26 480.37V449.931H285.305V455.302H285.662C286.296 453.518 287.353 452.111 288.833 451.081C290.312 450.05 292.083 449.535 294.143 449.535C296.231 449.535 298.008 450.057 299.474 451.1C300.941 452.131 301.918 453.531 302.407 455.302H302.724C303.345 453.558 304.468 452.164 306.093 451.12C307.731 450.063 309.667 449.535 311.899 449.535C314.74 449.535 317.045 450.44 318.815 452.25C320.599 454.047 321.491 456.596 321.491 459.899V480.37H313.068V461.564C313.068 459.873 312.619 458.604 311.721 457.759C310.823 456.913 309.7 456.491 308.352 456.491C306.82 456.491 305.624 456.979 304.765 457.957C303.906 458.921 303.477 460.196 303.477 461.782V480.37H295.293V461.385C295.293 459.892 294.863 458.703 294.005 457.818C293.159 456.933 292.043 456.491 290.656 456.491C289.718 456.491 288.872 456.728 288.119 457.204C287.379 457.666 286.791 458.32 286.355 459.166C285.92 459.998 285.702 460.976 285.702 462.099V480.37H277.26ZM328.159 491.784V449.931H336.482V455.044H336.858C337.228 454.225 337.763 453.393 338.464 452.547C339.177 451.688 340.102 450.975 341.238 450.407C342.387 449.826 343.814 449.535 345.518 449.535C347.738 449.535 349.786 450.116 351.661 451.279C353.537 452.428 355.037 454.165 356.16 456.491C357.283 458.803 357.844 461.702 357.844 465.19C357.844 468.585 357.296 471.452 356.2 473.791C355.116 476.116 353.637 477.879 351.761 479.082C349.898 480.271 347.81 480.865 345.498 480.865C343.86 480.865 342.467 480.594 341.317 480.053C340.181 479.511 339.25 478.831 338.523 478.012C337.796 477.179 337.242 476.34 336.858 475.495H336.601V491.784H328.159ZM336.422 465.151C336.422 466.96 336.673 468.539 337.175 469.887C337.677 471.234 338.404 472.285 339.355 473.038C340.307 473.777 341.462 474.147 342.823 474.147C344.197 474.147 345.36 473.771 346.311 473.018C347.262 472.251 347.982 471.195 348.471 469.847C348.973 468.486 349.224 466.921 349.224 465.151C349.224 463.393 348.98 461.848 348.491 460.513C348.002 459.179 347.282 458.135 346.331 457.382C345.38 456.629 344.21 456.253 342.823 456.253C341.449 456.253 340.287 456.616 339.335 457.343C338.397 458.069 337.677 459.1 337.175 460.434C336.673 461.768 336.422 463.341 336.422 465.151ZM371.914 439.785V480.37H363.472V439.785H371.914ZM378.677 480.37V449.931H387.119V480.37H378.677ZM382.917 446.008C381.662 446.008 380.586 445.591 379.687 444.759C378.802 443.914 378.36 442.903 378.36 441.727C378.36 440.565 378.802 439.567 379.687 438.735C380.586 437.889 381.662 437.467 382.917 437.467C384.172 437.467 385.243 437.889 386.128 438.735C387.026 439.567 387.475 440.565 387.475 441.727C387.475 442.903 387.026 443.914 386.128 444.759C385.243 445.591 384.172 446.008 382.917 446.008ZM410.25 449.931V456.273H391.463V449.931H410.25ZM395.764 480.37V447.732C395.764 445.525 396.193 443.696 397.052 442.242C397.924 440.789 399.113 439.699 400.619 438.973C402.125 438.246 403.836 437.883 405.751 437.883C407.046 437.883 408.228 437.982 409.298 438.18C410.382 438.378 411.188 438.556 411.716 438.715L410.21 445.056C409.88 444.951 409.47 444.852 408.981 444.759C408.506 444.667 408.017 444.62 407.515 444.62C406.273 444.62 405.408 444.911 404.919 445.492C404.43 446.06 404.186 446.86 404.186 447.89V480.37H395.764ZM415.407 480.37V449.931H423.849V480.37H415.407ZM419.648 446.008C418.393 446.008 417.316 445.591 416.418 444.759C415.532 443.914 415.09 442.903 415.09 441.727C415.09 440.565 415.532 439.567 416.418 438.735C417.316 437.889 418.393 437.467 419.648 437.467C420.903 437.467 421.973 437.889 422.858 438.735C423.756 439.567 424.206 440.565 424.206 441.727C424.206 442.903 423.756 443.914 422.858 444.759C421.973 445.591 420.903 446.008 419.648 446.008ZM444.483 480.964C441.352 480.964 438.657 480.33 436.398 479.062C434.152 477.78 432.421 475.97 431.206 473.632C429.99 471.28 429.383 468.5 429.383 465.289C429.383 462.158 429.99 459.41 431.206 457.045C432.421 454.681 434.132 452.838 436.338 451.517C438.558 450.195 441.16 449.535 444.146 449.535C446.154 449.535 448.024 449.859 449.754 450.506C451.498 451.14 453.017 452.098 454.312 453.379C455.62 454.661 456.637 456.273 457.364 458.215C458.091 460.143 458.454 462.403 458.454 464.992V467.311H432.752V462.079H450.507C450.507 460.863 450.243 459.787 449.715 458.849C449.186 457.911 448.453 457.178 447.515 456.649C446.59 456.107 445.514 455.837 444.285 455.837C443.003 455.837 441.867 456.134 440.876 456.728C439.899 457.31 439.133 458.096 438.578 459.087C438.023 460.064 437.739 461.154 437.726 462.356V467.33C437.726 468.836 438.003 470.138 438.558 471.234C439.126 472.331 439.925 473.176 440.956 473.771C441.986 474.365 443.208 474.663 444.622 474.663C445.56 474.663 446.418 474.53 447.198 474.266C447.977 474.002 448.645 473.606 449.199 473.077C449.754 472.549 450.177 471.901 450.468 471.135L458.275 471.65C457.879 473.526 457.067 475.165 455.838 476.565C454.623 477.952 453.05 479.035 451.122 479.815C449.206 480.581 446.993 480.964 444.483 480.964ZM475.179 480.865C472.867 480.865 470.773 480.271 468.897 479.082C467.034 477.879 465.555 476.116 464.458 473.791C463.375 471.452 462.833 468.585 462.833 465.19C462.833 461.702 463.395 458.803 464.518 456.491C465.641 454.165 467.134 452.428 468.996 451.279C470.872 450.116 472.927 449.535 475.159 449.535C476.864 449.535 478.284 449.826 479.42 450.407C480.569 450.975 481.494 451.688 482.194 452.547C482.908 453.393 483.449 454.225 483.819 455.044H484.077V439.785H492.499V480.37H484.176V475.495H483.819C483.423 476.34 482.861 477.179 482.135 478.012C481.421 478.831 480.49 479.511 479.341 480.053C478.205 480.594 476.817 480.865 475.179 480.865ZM477.854 474.147C479.215 474.147 480.365 473.777 481.303 473.038C482.254 472.285 482.98 471.234 483.482 469.887C483.998 468.539 484.255 466.96 484.255 465.151C484.255 463.341 484.004 461.768 483.502 460.434C483 459.1 482.274 458.069 481.322 457.343C480.371 456.616 479.215 456.253 477.854 456.253C476.467 456.253 475.298 456.629 474.347 457.382C473.396 458.135 472.676 459.179 472.187 460.513C471.698 461.848 471.454 463.393 471.454 465.151C471.454 466.921 471.698 468.486 472.187 469.847C472.689 471.195 473.409 472.251 474.347 473.018C475.298 473.771 476.467 474.147 477.854 474.147ZM512.514 480.37V439.785H520.956V455.044H521.213C521.583 454.225 522.118 453.393 522.819 452.547C523.532 451.688 524.457 450.975 525.593 450.407C526.742 449.826 528.169 449.535 529.873 449.535C532.093 449.535 534.141 450.116 536.016 451.279C537.892 452.428 539.392 454.165 540.515 456.491C541.638 458.803 542.199 461.702 542.199 465.19C542.199 468.585 541.651 471.452 540.555 473.791C539.471 476.116 537.992 477.879 536.116 479.082C534.253 480.271 532.165 480.865 529.853 480.865C528.215 480.865 526.822 480.594 525.672 480.053C524.536 479.511 523.605 478.831 522.878 478.012C522.151 477.179 521.597 476.34 521.213 475.495H520.837V480.37H512.514ZM520.777 465.151C520.777 466.96 521.028 468.539 521.53 469.887C522.032 471.234 522.759 472.285 523.71 473.038C524.662 473.777 525.817 474.147 527.178 474.147C528.552 474.147 529.715 473.771 530.666 473.018C531.617 472.251 532.337 471.195 532.826 469.847C533.328 468.486 533.579 466.921 533.579 465.151C533.579 463.393 533.335 461.848 532.846 460.513C532.357 459.179 531.637 458.135 530.686 457.382C529.735 456.629 528.565 456.253 527.178 456.253C525.804 456.253 524.642 456.616 523.69 457.343C522.753 458.069 522.032 459.1 521.53 460.434C521.028 461.768 520.777 463.341 520.777 465.151ZM552.063 491.784C550.993 491.784 549.989 491.698 549.051 491.527C548.126 491.368 547.36 491.163 546.752 490.912L548.655 484.611C549.645 484.914 550.537 485.08 551.33 485.106C552.136 485.132 552.829 484.947 553.411 484.551C554.005 484.155 554.487 483.481 554.857 482.53L555.353 481.242L544.434 449.931H553.312L559.613 472.285H559.93L566.291 449.931H575.229L563.398 483.659C562.83 485.298 562.057 486.724 561.08 487.94C560.115 489.168 558.893 490.113 557.414 490.774C555.934 491.447 554.15 491.784 552.063 491.784ZM599.618 480.37H590.423L604.434 439.785H615.491L629.482 480.37H620.287L610.121 449.059H609.804L599.618 480.37ZM599.044 464.417H620.763V471.115H599.044V464.417ZM642.948 439.785V480.37H634.367V439.785H642.948Z" fill="black"/>
</svg>
