<svg width="204" height="47" viewBox="0 0 204 47" fill="none" xmlns="http://www.w3.org/2000/svg">
<path d="M18.3324 3.96066H27.3965V30.2613C27.3841 32.7254 26.7959 34.88 25.632 36.725C24.468 38.5576 22.8583 39.9816 20.8028 40.997C18.7596 42.0124 16.3946 42.5201 13.7075 42.5201C11.3301 42.5201 9.16931 42.1053 7.22525 41.2756C5.29356 40.446 3.75193 39.1582 2.60035 37.4122C1.46115 35.6663 0.897738 33.4312 0.910121 30.7071H10.0671C10.1042 31.6853 10.2899 32.5211 10.6243 33.2145C10.971 33.8956 11.4477 34.4095 12.0545 34.7562C12.6612 35.1029 13.3856 35.2762 14.2276 35.2762C15.1068 35.2762 15.8497 35.0905 16.4565 34.719C17.0632 34.3352 17.5214 33.7718 17.8309 33.0288C18.1529 32.2859 18.3201 31.3633 18.3324 30.2613V3.96066ZM31.2738 3.96066H41.5452L49.5877 19.8785H49.922L57.9645 3.96066H68.2359L54.324 29.2955V42H45.1856V29.2955L31.2738 3.96066ZM104.464 3.96066V42H96.6632L81.5255 20.0457H81.284V42H72.0899V3.96066H80.0024L94.973 25.8779H95.2887V3.96066H104.464ZM119.551 3.96066L126.498 15.978H126.795L133.816 3.96066H144.106L132.627 22.9803L144.477 42H133.927L126.795 29.8527H126.498L119.365 42H108.889L120.684 22.9803L109.187 3.96066H119.551Z" fill="black"/>
<path d="M18.3324 3.96066H27.3965V30.2613C27.3841 32.7254 26.7959 34.88 25.632 36.725C24.468 38.5576 22.8583 39.9816 20.8028 40.997C18.7596 42.0124 16.3946 42.5201 13.7075 42.5201C11.3301 42.5201 9.16931 42.1053 7.22525 41.2756C5.29356 40.446 3.75193 39.1582 2.60035 37.4122C1.46115 35.6663 0.897738 33.4312 0.910121 30.7071H10.0671C10.1042 31.6853 10.2899 32.5211 10.6243 33.2145C10.971 33.8956 11.4477 34.4095 12.0545 34.7562C12.6612 35.1029 13.3856 35.2762 14.2276 35.2762C15.1068 35.2762 15.8497 35.0905 16.4565 34.719C17.0632 34.3352 17.5214 33.7718 17.8309 33.0288C18.1529 32.2859 18.3201 31.3633 18.3324 30.2613V3.96066ZM31.2738 3.96066H41.5452L49.5877 19.8785H49.922L57.9645 3.96066H68.2359L54.324 29.2955V42H45.1856V29.2955L31.2738 3.96066ZM104.464 3.96066V42H96.6632L81.5255 20.0457H81.284V42H72.0899V3.96066H80.0024L94.973 25.8779H95.2887V3.96066H104.464ZM119.551 3.96066L126.498 15.978H126.795L133.816 3.96066H144.106L132.627 22.9803L144.477 42H133.927L126.795 29.8527H126.498L119.365 42H108.889L120.684 22.9803L109.187 3.96066H119.551Z" fill="url(#paint0_linear_54_94)"/>
<path d="M183.802 10.0298C183.694 9.65571 183.543 9.32515 183.348 9.03815C183.154 8.74603 182.915 8.50004 182.634 8.30016C182.357 8.09517 182.039 7.93886 181.68 7.83123C181.327 7.72361 180.935 7.6698 180.504 7.6698C179.699 7.6698 178.992 7.86967 178.382 8.26941C177.778 8.66916 177.306 9.25084 176.968 10.0145C176.63 10.7729 176.461 11.7006 176.461 12.7973C176.461 13.894 176.627 14.8268 176.96 15.5955C177.293 16.3642 177.765 16.9511 178.375 17.3559C178.985 17.7557 179.705 17.9555 180.535 17.9555C181.288 17.9555 181.931 17.8223 182.464 17.5558C183.003 17.2842 183.412 16.9024 183.694 16.4104C183.981 15.9184 184.125 15.3367 184.125 14.6653L184.801 14.7653H180.742V12.2592H187.331V14.2425C187.331 15.6263 187.038 16.8152 186.454 17.8095C185.87 18.7986 185.065 19.5622 184.04 20.1003C183.015 20.6333 181.842 20.8998 180.519 20.8998C179.043 20.8998 177.747 20.5744 176.63 19.9235C175.512 19.2675 174.641 18.3373 174.016 17.133C173.396 15.9235 173.086 14.4885 173.086 12.828C173.086 11.5519 173.27 10.4142 173.639 9.41484C174.013 8.41035 174.536 7.55961 175.207 6.86262C175.879 6.16563 176.66 5.6352 177.552 5.27133C178.444 4.90746 179.41 4.72552 180.45 4.72552C181.342 4.72552 182.172 4.85621 182.941 5.11758C183.71 5.37383 184.391 5.7377 184.986 6.20919C185.585 6.68068 186.075 7.24186 186.454 7.89273C186.833 8.53847 187.077 9.25084 187.184 10.0298H183.802ZM198.372 9.46865C198.31 8.84853 198.046 8.36679 197.58 8.02342C197.113 7.68005 196.48 7.50836 195.681 7.50836C195.138 7.50836 194.679 7.58523 194.305 7.73898C193.931 7.88761 193.644 8.09517 193.444 8.36166C193.249 8.62816 193.152 8.93053 193.152 9.26878C193.142 9.55065 193.2 9.79664 193.329 10.0068C193.462 10.2169 193.644 10.3988 193.874 10.5526C194.105 10.7012 194.372 10.8319 194.674 10.9446C194.976 11.0523 195.299 11.1445 195.643 11.2214L197.057 11.5596C197.744 11.7134 198.374 11.9184 198.948 12.1746C199.522 12.4309 200.019 12.746 200.439 13.1202C200.86 13.4943 201.185 13.935 201.416 14.4424C201.652 14.9498 201.772 15.5314 201.777 16.1874C201.772 17.1509 201.526 17.9863 201.039 18.6935C200.557 19.3956 199.86 19.9415 198.948 20.3309C198.041 20.7153 196.947 20.9075 195.666 20.9075C194.395 20.9075 193.288 20.7128 192.345 20.3233C191.407 19.9338 190.674 19.3572 190.146 18.5936C189.623 17.8249 189.349 16.8742 189.323 15.7416H192.544C192.58 16.2694 192.732 16.7102 192.998 17.0638C193.27 17.4123 193.631 17.6762 194.082 17.8556C194.538 18.0299 195.053 18.117 195.627 18.117C196.191 18.117 196.68 18.035 197.095 17.871C197.516 17.707 197.841 17.4789 198.072 17.1868C198.302 16.8947 198.418 16.559 198.418 16.1798C198.418 15.8261 198.313 15.5289 198.102 15.288C197.897 15.0471 197.595 14.8421 197.195 14.673C196.801 14.5039 196.316 14.3501 195.742 14.2118L194.028 13.7813C192.701 13.4584 191.653 12.9536 190.884 12.2669C190.115 11.5801 189.733 10.6551 189.739 9.49171C189.733 8.53847 189.987 7.70567 190.5 6.99331C191.017 6.28094 191.727 5.72488 192.629 5.32514C193.531 4.92539 194.556 4.72552 195.704 4.72552C196.873 4.72552 197.892 4.92539 198.764 5.32514C199.64 5.72488 200.322 6.28094 200.808 6.99331C201.295 7.70567 201.546 8.53078 201.562 9.46865H198.372ZM173.45 41.6846V38.9481L179.844 33.0278C180.388 32.5015 180.844 32.0279 181.212 31.6069C181.586 31.1859 181.87 30.7737 182.063 30.3702C182.256 29.9609 182.352 29.5194 182.352 29.0458C182.352 28.5196 182.233 28.0664 181.993 27.6863C181.753 27.3004 181.426 27.0051 181.011 26.8005C180.595 26.59 180.125 26.4847 179.598 26.4847C179.049 26.4847 178.569 26.5958 178.16 26.818C177.751 27.0402 177.435 27.3589 177.213 27.7741C176.991 28.1892 176.879 28.6833 176.879 29.2563H173.275C173.275 28.081 173.541 27.0607 174.073 26.1953C174.605 25.3299 175.35 24.6604 176.309 24.1868C177.268 23.7132 178.373 23.4763 179.625 23.4763C180.911 23.4763 182.031 23.7044 182.984 24.1605C183.943 24.6107 184.688 25.2364 185.221 26.0374C185.753 26.8385 186.019 27.7565 186.019 28.7915C186.019 29.4697 185.884 30.1392 185.615 30.8C185.352 31.4607 184.881 32.1945 184.203 33.0015C183.525 33.8025 182.569 34.7644 181.335 35.8871L178.713 38.4569V38.5797H186.255V41.6846H173.45ZM195.901 41.9302C194.977 41.9243 194.086 41.7694 193.226 41.4653C192.372 41.1612 191.606 40.6672 190.928 39.983C190.25 39.2989 189.712 38.3926 189.314 37.2641C188.923 36.1356 188.727 34.7498 188.727 33.1067C188.733 31.5981 188.905 30.2503 189.244 29.0634C189.589 27.8705 190.08 26.859 190.718 26.0287C191.361 25.1984 192.13 24.5669 193.024 24.1342C193.919 23.6956 194.922 23.4763 196.033 23.4763C197.231 23.4763 198.29 23.7102 199.208 24.178C200.126 24.6399 200.863 25.2685 201.418 26.0637C201.979 26.859 202.319 27.7507 202.435 28.7388H198.69C198.544 28.1132 198.237 27.622 197.769 27.2653C197.302 26.9087 196.723 26.7303 196.033 26.7303C194.863 26.7303 193.975 27.239 193.366 28.2564C192.764 29.2739 192.457 30.6567 192.445 32.405H192.568C192.837 31.8729 193.2 31.4198 193.656 31.0456C194.118 30.6655 194.641 30.3761 195.226 30.1773C195.816 29.9726 196.439 29.8703 197.094 29.8703C198.158 29.8703 199.105 30.1217 199.936 30.6246C200.766 31.1216 201.421 31.8057 201.9 32.6769C202.38 33.5482 202.62 34.5451 202.62 35.6678C202.62 36.884 202.336 37.9657 201.769 38.913C201.208 39.8602 200.421 40.6028 199.41 41.1408C198.404 41.6729 197.234 41.936 195.901 41.9302ZM195.884 38.9481C196.468 38.9481 196.992 38.8077 197.454 38.5271C197.916 38.2464 198.278 37.8663 198.541 37.3869C198.804 36.9074 198.936 36.3695 198.936 35.773C198.936 35.1766 198.804 34.6416 198.541 34.168C198.284 33.6944 197.927 33.3172 197.471 33.0365C197.015 32.7559 196.495 32.6155 195.91 32.6155C195.471 32.6155 195.065 32.6974 194.691 32.8611C194.322 33.0248 193.998 33.2529 193.717 33.5452C193.442 33.8376 193.226 34.1767 193.068 34.5627C192.91 34.9427 192.831 35.3491 192.831 35.7818C192.831 36.3607 192.963 36.8899 193.226 37.3693C193.495 37.8488 193.858 38.2318 194.314 38.5183C194.776 38.8048 195.299 38.9481 195.884 38.9481Z" fill="black"/>
<path d="M183.802 10.0298C183.694 9.65571 183.543 9.32515 183.348 9.03815C183.154 8.74603 182.915 8.50004 182.634 8.30016C182.357 8.09517 182.039 7.93886 181.68 7.83123C181.327 7.72361 180.935 7.6698 180.504 7.6698C179.699 7.6698 178.992 7.86967 178.382 8.26941C177.778 8.66916 177.306 9.25084 176.968 10.0145C176.63 10.7729 176.461 11.7006 176.461 12.7973C176.461 13.894 176.627 14.8268 176.96 15.5955C177.293 16.3642 177.765 16.9511 178.375 17.3559C178.985 17.7557 179.705 17.9555 180.535 17.9555C181.288 17.9555 181.931 17.8223 182.464 17.5558C183.003 17.2842 183.412 16.9024 183.694 16.4104C183.981 15.9184 184.125 15.3367 184.125 14.6653L184.801 14.7653H180.742V12.2592H187.331V14.2425C187.331 15.6263 187.038 16.8152 186.454 17.8095C185.87 18.7986 185.065 19.5622 184.04 20.1003C183.015 20.6333 181.842 20.8998 180.519 20.8998C179.043 20.8998 177.747 20.5744 176.63 19.9235C175.512 19.2675 174.641 18.3373 174.016 17.133C173.396 15.9235 173.086 14.4885 173.086 12.828C173.086 11.5519 173.27 10.4142 173.639 9.41484C174.013 8.41035 174.536 7.55961 175.207 6.86262C175.879 6.16563 176.66 5.6352 177.552 5.27133C178.444 4.90746 179.41 4.72552 180.45 4.72552C181.342 4.72552 182.172 4.85621 182.941 5.11758C183.71 5.37383 184.391 5.7377 184.986 6.20919C185.585 6.68068 186.075 7.24186 186.454 7.89273C186.833 8.53847 187.077 9.25084 187.184 10.0298H183.802ZM198.372 9.46865C198.31 8.84853 198.046 8.36679 197.58 8.02342C197.113 7.68005 196.48 7.50836 195.681 7.50836C195.138 7.50836 194.679 7.58523 194.305 7.73898C193.931 7.88761 193.644 8.09517 193.444 8.36166C193.249 8.62816 193.152 8.93053 193.152 9.26878C193.142 9.55065 193.2 9.79664 193.329 10.0068C193.462 10.2169 193.644 10.3988 193.874 10.5526C194.105 10.7012 194.372 10.8319 194.674 10.9446C194.976 11.0523 195.299 11.1445 195.643 11.2214L197.057 11.5596C197.744 11.7134 198.374 11.9184 198.948 12.1746C199.522 12.4309 200.019 12.746 200.439 13.1202C200.86 13.4943 201.185 13.935 201.416 14.4424C201.652 14.9498 201.772 15.5314 201.777 16.1874C201.772 17.1509 201.526 17.9863 201.039 18.6935C200.557 19.3956 199.86 19.9415 198.948 20.3309C198.041 20.7153 196.947 20.9075 195.666 20.9075C194.395 20.9075 193.288 20.7128 192.345 20.3233C191.407 19.9338 190.674 19.3572 190.146 18.5936C189.623 17.8249 189.349 16.8742 189.323 15.7416H192.544C192.58 16.2694 192.732 16.7102 192.998 17.0638C193.27 17.4123 193.631 17.6762 194.082 17.8556C194.538 18.0299 195.053 18.117 195.627 18.117C196.191 18.117 196.68 18.035 197.095 17.871C197.516 17.707 197.841 17.4789 198.072 17.1868C198.302 16.8947 198.418 16.559 198.418 16.1798C198.418 15.8261 198.313 15.5289 198.102 15.288C197.897 15.0471 197.595 14.8421 197.195 14.673C196.801 14.5039 196.316 14.3501 195.742 14.2118L194.028 13.7813C192.701 13.4584 191.653 12.9536 190.884 12.2669C190.115 11.5801 189.733 10.6551 189.739 9.49171C189.733 8.53847 189.987 7.70567 190.5 6.99331C191.017 6.28094 191.727 5.72488 192.629 5.32514C193.531 4.92539 194.556 4.72552 195.704 4.72552C196.873 4.72552 197.892 4.92539 198.764 5.32514C199.64 5.72488 200.322 6.28094 200.808 6.99331C201.295 7.70567 201.546 8.53078 201.562 9.46865H198.372ZM173.45 41.6846V38.9481L179.844 33.0278C180.388 32.5015 180.844 32.0279 181.212 31.6069C181.586 31.1859 181.87 30.7737 182.063 30.3702C182.256 29.9609 182.352 29.5194 182.352 29.0458C182.352 28.5196 182.233 28.0664 181.993 27.6863C181.753 27.3004 181.426 27.0051 181.011 26.8005C180.595 26.59 180.125 26.4847 179.598 26.4847C179.049 26.4847 178.569 26.5958 178.16 26.818C177.751 27.0402 177.435 27.3589 177.213 27.7741C176.991 28.1892 176.879 28.6833 176.879 29.2563H173.275C173.275 28.081 173.541 27.0607 174.073 26.1953C174.605 25.3299 175.35 24.6604 176.309 24.1868C177.268 23.7132 178.373 23.4763 179.625 23.4763C180.911 23.4763 182.031 23.7044 182.984 24.1605C183.943 24.6107 184.688 25.2364 185.221 26.0374C185.753 26.8385 186.019 27.7565 186.019 28.7915C186.019 29.4697 185.884 30.1392 185.615 30.8C185.352 31.4607 184.881 32.1945 184.203 33.0015C183.525 33.8025 182.569 34.7644 181.335 35.8871L178.713 38.4569V38.5797H186.255V41.6846H173.45ZM195.901 41.9302C194.977 41.9243 194.086 41.7694 193.226 41.4653C192.372 41.1612 191.606 40.6672 190.928 39.983C190.25 39.2989 189.712 38.3926 189.314 37.2641C188.923 36.1356 188.727 34.7498 188.727 33.1067C188.733 31.5981 188.905 30.2503 189.244 29.0634C189.589 27.8705 190.08 26.859 190.718 26.0287C191.361 25.1984 192.13 24.5669 193.024 24.1342C193.919 23.6956 194.922 23.4763 196.033 23.4763C197.231 23.4763 198.29 23.7102 199.208 24.178C200.126 24.6399 200.863 25.2685 201.418 26.0637C201.979 26.859 202.319 27.7507 202.435 28.7388H198.69C198.544 28.1132 198.237 27.622 197.769 27.2653C197.302 26.9087 196.723 26.7303 196.033 26.7303C194.863 26.7303 193.975 27.239 193.366 28.2564C192.764 29.2739 192.457 30.6567 192.445 32.405H192.568C192.837 31.8729 193.2 31.4198 193.656 31.0456C194.118 30.6655 194.641 30.3761 195.226 30.1773C195.816 29.9726 196.439 29.8703 197.094 29.8703C198.158 29.8703 199.105 30.1217 199.936 30.6246C200.766 31.1216 201.421 31.8057 201.9 32.6769C202.38 33.5482 202.62 34.5451 202.62 35.6678C202.62 36.884 202.336 37.9657 201.769 38.913C201.208 39.8602 200.421 40.6028 199.41 41.1408C198.404 41.6729 197.234 41.936 195.901 41.9302ZM195.884 38.9481C196.468 38.9481 196.992 38.8077 197.454 38.5271C197.916 38.2464 198.278 37.8663 198.541 37.3869C198.804 36.9074 198.936 36.3695 198.936 35.773C198.936 35.1766 198.804 34.6416 198.541 34.168C198.284 33.6944 197.927 33.3172 197.471 33.0365C197.015 32.7559 196.495 32.6155 195.91 32.6155C195.471 32.6155 195.065 32.6974 194.691 32.8611C194.322 33.0248 193.998 33.2529 193.717 33.5452C193.442 33.8376 193.226 34.1767 193.068 34.5627C192.91 34.9427 192.831 35.3491 192.831 35.7818C192.831 36.3607 192.963 36.8899 193.226 37.3693C193.495 37.8488 193.858 38.2318 194.314 38.5183C194.776 38.8048 195.299 38.9481 195.884 38.9481Z" fill="url(#paint1_linear_54_94)"/>
<line x1="159.633" y1="4.21118" x2="159.633" y2="41.9496" stroke="black" stroke-width="1.49733"/>
<line x1="159.633" y1="4.21118" x2="159.633" y2="41.9496" stroke="url(#paint2_linear_54_94)" stroke-width="1.49733"/>
<defs>
<linearGradient id="paint0_linear_54_94" x1="14.8199" y1="55.7711" x2="66.9313" y2="-50.7793" gradientUnits="userSpaceOnUse">
<stop stop-color="white"/>
<stop offset="0.88142" stop-color="#52C8FB"/>
</linearGradient>
<linearGradient id="paint1_linear_54_94" x1="174.97" y1="53.1904" x2="220.237" y2="33.0643" gradientUnits="userSpaceOnUse">
<stop stop-color="white"/>
<stop offset="0.88142" stop-color="#52C8FB"/>
</linearGradient>
<linearGradient id="paint2_linear_54_94" x1="157.687" y1="7.72098" x2="160.517" y2="7.84651" gradientUnits="userSpaceOnUse">
<stop stop-color="white"/>
<stop offset="0.88142" stop-color="#52C8FB"/>
</linearGradient>
</defs>
</svg>
